<svg width="16" height="16" viewBox="0 0 16 16" fill="none" xmlns="http://www.w3.org/2000/svg">
<mask id="path-1-inside-1" fill="white">
<path fill-rule="evenodd" clip-rule="evenodd" d="M14.5 2H1.5L1 2.5V12.5L1.5 13H7V14H4V15H12V14H9V13H14.5L15 12.5V2.5L14.5 2ZM14 12H2V3H14V12Z"/>
</mask>
<path fill-rule="evenodd" clip-rule="evenodd" d="M14.5 2H1.5L1 2.5V12.5L1.5 13H7V14H4V15H12V14H9V13H14.5L15 12.5V2.5L14.5 2ZM14 12H2V3H14V12Z" fill="white"/>
<path d="M1.5 2V1H1.08579L0.792893 1.29289L1.5 2ZM14.5 2L15.2071 1.29289L14.9142 1H14.5V2ZM1 2.5L0.292893 1.79289L0 2.08579V2.5H1ZM1 12.5H0V12.9142L0.292893 13.2071L1 12.5ZM1.5 13L0.792893 13.7071L1.08579 14H1.5V13ZM7 13H8V12H7V13ZM7 14V15H8V14H7ZM4 14V13H3V14H4ZM4 15H3V16H4V15ZM12 15V16H13V15H12ZM12 14H13V13H12V14ZM9 14H8V15H9V14ZM9 13V12H8V13H9ZM14.5 13V14H14.9142L15.2071 13.7071L14.5 13ZM15 12.5L15.7071 13.2071L16 12.9142V12.5H15ZM15 2.5H16V2.08579L15.7071 1.79289L15 2.5ZM2 12H1V13H2V12ZM14 12V13H15V12H14ZM2 3V2H1V3H2ZM14 3H15V2H14V3ZM1.5 3H14.5V1H1.5V3ZM1.70711 3.20711L2.20711 2.70711L0.792893 1.29289L0.292893 1.79289L1.70711 3.20711ZM2 12.5V2.5H0V12.5H2ZM2.20711 12.2929L1.70711 11.7929L0.292893 13.2071L0.792893 13.7071L2.20711 12.2929ZM7 12H1.5V14H7V12ZM8 14V13H6V14H8ZM4 15H7V13H4V15ZM5 15V14H3V15H5ZM12 14H4V16H12V14ZM11 14V15H13V14H11ZM9 15H12V13H9V15ZM8 13V14H10V13H8ZM14.5 12H9V14H14.5V12ZM14.2929 11.7929L13.7929 12.2929L15.2071 13.7071L15.7071 13.2071L14.2929 11.7929ZM14 2.5V12.5H16V2.5H14ZM13.7929 2.70711L14.2929 3.20711L15.7071 1.79289L15.2071 1.29289L13.7929 2.70711ZM2 13H14V11H2V13ZM1 3V12H3V3H1ZM14 2H2V4H14V2ZM15 12V3H13V12H15Z" fill="white" mask="url(#path-1-inside-1)"/>
</svg>
