<svg width="16" height="16" viewBox="0 0 16 16" fill="none" xmlns="http://www.w3.org/2000/svg">
<path fill-rule="evenodd" clip-rule="evenodd" d="M1.5 2H14.5L15 2.5V8.00305C14.6892 7.76964 14.3534 7.57413 14 7.41955V3H2V12H7C7 12.326 7.03187 12.6527 7.09608 12.9755C7.24266 13.7124 7.55277 14.4037 8 15H4V14H7V13H1.5L1 12.5V2.5L1.5 2Z" fill="white"/>
<path d="M10.0555 9.08986C10.631 8.70533 11.3076 8.50006 11.9997 8.5C12.9277 8.50122 13.8173 8.87039 14.4734 9.52656C15.1296 10.1827 15.4988 11.0723 15.5 12.0002C15.5 12.6924 15.2947 13.369 14.9101 13.9445C14.5256 14.5201 13.9789 14.9687 13.3394 15.2336C12.6999 15.4985 11.9961 15.5678 11.3172 15.4327C10.6383 15.2977 10.0146 14.9644 9.52513 14.4749C9.03564 13.9854 8.7023 13.3617 8.56725 12.6828C8.43221 12.0039 8.50152 11.3001 8.76642 10.6606C9.03133 10.0211 9.47993 9.47444 10.0555 9.08986Z" stroke="white"/>
</svg>
