<svg id="Layer_1" data-name="Layer 1" xmlns="http://www.w3.org/2000/svg" viewBox="0 0 96 96"><defs><style>.cls-1{fill:#C3D1DD;}</style></defs><title>logo</title><rect class="cls-1" x="15.73" y="35.38" width="14.89" height="39.72"/><rect class="cls-1" x="15.73" y="83.36" width="14.89" height="5.79"/><rect class="cls-1" x="36.42" y="22.14" width="14.89" height="52.95"/><rect class="cls-1" x="36.42" y="83.36" width="14.89" height="5.79"/><rect class="cls-1" x="57.1" y="6.42" width="14.89" height="68.67"/><rect class="cls-1" x="57.1" y="83.36" width="14.89" height="5.79"/><rect class="cls-1" x="31.45" y="48.61" width="4.12" height="5.79"/><rect class="cls-1" x="52.14" y="48.61" width="4.14" height="5.79"/><path class="cls-1" d="M96,84.81l-9.13-9.13a10.94,10.94,0,0,0,.85-4.23V59.6a11,11,0,0,0-11-11h-3V54.4h3a5.2,5.2,0,0,1,5.2,5.2v7.57h0v4.28a5.2,5.2,0,0,1-5.2,5.2H11a5.2,5.2,0,0,1-5.2-5.2V59.6A5.2,5.2,0,0,1,11,54.4h2.93V48.61H11a11,11,0,0,0-11,11V71.45a11,11,0,0,0,11,11H76.73a10.92,10.92,0,0,0,5.73-1.62l8.77,8.77Z"/></svg>