<?xml version="1.0" encoding="utf-8"?>
<!-- Generator: Adobe Illustrator 19.1.0, SVG Export Plug-In . SVG Version: 6.00 Build 0)  -->
<svg version="1.1" id="Layer_1" xmlns="http://www.w3.org/2000/svg" xmlns:xlink="http://www.w3.org/1999/xlink" x="0px" y="0px"
	 width="16px" height="16px" viewBox="0 0 16 16" enable-background="new 0 0 16 16" xml:space="preserve">
<path d="M4.168,6.703C3.812,6.365,3.284,6.195,2.586,6.195c-0.359,0-0.711,0.042-1.055,0.125C1.188,6.404,0.859,6.537,0.547,6.719
	V7.82c0.26-0.219,0.539-0.388,0.836-0.508C1.68,7.193,2,7.133,2.344,7.133c0.391,0,0.679,0.103,0.863,0.309
	c0.185,0.206,0.277,0.501,0.277,0.887L1.82,8.563C1.555,8.604,1.31,8.668,1.086,8.754C0.862,8.84,0.669,8.957,0.508,9.105
	c-0.162,0.148-0.287,0.33-0.375,0.543C0.044,9.862,0,10.112,0,10.398c0,0.266,0.044,0.5,0.133,0.703
	c0.088,0.203,0.211,0.374,0.367,0.512c0.156,0.139,0.341,0.244,0.555,0.316c0.214,0.073,0.448,0.109,0.703,0.109
	c0.38,0,0.711-0.087,0.992-0.262c0.281-0.174,0.516-0.423,0.703-0.746h0.016v0.867h1.234V8.273C4.703,7.565,4.524,7.042,4.168,6.703
	z M3.484,9.648c0,0.193-0.032,0.377-0.098,0.551c-0.065,0.175-0.156,0.327-0.273,0.457c-0.117,0.131-0.258,0.233-0.422,0.309
	c-0.164,0.076-0.345,0.113-0.543,0.113c-0.125,0-0.243-0.017-0.355-0.051c-0.112-0.033-0.211-0.083-0.297-0.148
	c-0.086-0.064-0.153-0.148-0.203-0.25s-0.074-0.22-0.074-0.355c0-0.182,0.028-0.329,0.086-0.441c0.058-0.111,0.134-0.201,0.23-0.27
	C1.632,9.495,1.746,9.444,1.879,9.41C2.012,9.377,2.156,9.35,2.313,9.328l1.172-0.164V9.648z"/>
<path d="M11.055,7.918c-0.083-0.331-0.215-0.624-0.395-0.879c-0.18-0.255-0.413-0.459-0.699-0.613
	c-0.286-0.153-0.63-0.23-1.031-0.23c-0.833,0-1.464,0.37-1.891,1.109H7.008V3.648H5.75v8.25h1.258v-0.805h0.031
	c0.37,0.631,0.917,0.945,1.641,0.945c0.442,0,0.823-0.087,1.141-0.262c0.317-0.174,0.577-0.404,0.777-0.691
	c0.2-0.286,0.348-0.614,0.441-0.984c0.094-0.369,0.141-0.752,0.141-1.148C11.18,8.594,11.138,8.249,11.055,7.918z M9.813,9.688
	c-0.047,0.245-0.128,0.468-0.242,0.668c-0.114,0.201-0.269,0.363-0.461,0.488s-0.435,0.188-0.727,0.188
	c-0.203,0-0.39-0.039-0.559-0.117s-0.315-0.184-0.438-0.316s-0.218-0.286-0.285-0.461C7.034,9.963,7,9.776,7,9.578V8.875
	c0-0.224,0.034-0.438,0.102-0.641s0.165-0.381,0.293-0.535c0.128-0.153,0.284-0.276,0.469-0.367C8.048,7.241,8.261,7.195,8.5,7.195
	c0.25,0,0.464,0.051,0.641,0.152s0.32,0.234,0.43,0.398s0.188,0.352,0.238,0.563s0.074,0.426,0.074,0.645
	C9.883,9.198,9.859,9.443,9.813,9.688z"/>
<path d="M14.75,7.195c-0.286,0-0.543,0.051-0.77,0.152S13.563,7.59,13.406,7.77s-0.274,0.39-0.355,0.629
	c-0.081,0.24-0.121,0.495-0.121,0.766c0,0.276,0.039,0.529,0.117,0.758c0.078,0.229,0.192,0.426,0.344,0.59s0.336,0.292,0.555,0.383
	c0.219,0.092,0.472,0.137,0.758,0.137c0.239,0,0.468-0.043,0.684-0.129s0.415-0.204,0.598-0.355v1.102
	c-0.239,0.136-0.493,0.234-0.762,0.297s-0.54,0.094-0.816,0.094c-0.417,0-0.796-0.067-1.137-0.203
	c-0.341-0.135-0.633-0.325-0.875-0.57c-0.242-0.244-0.429-0.539-0.559-0.883s-0.195-0.724-0.195-1.141
	c0-0.458,0.07-0.875,0.211-1.25s0.341-0.695,0.602-0.961s0.575-0.471,0.945-0.617c0.37-0.146,0.786-0.219,1.25-0.219
	c0.234,0,0.465,0.02,0.691,0.059S15.786,6.362,16,6.461v1.172c-0.188-0.135-0.384-0.242-0.59-0.32S14.984,7.195,14.75,7.195z"/>
</svg>
