<?xml version="1.0" encoding="utf-8"?>
<!-- Generator: Adobe Illustrator 19.1.0, SVG Export Plug-In . SVG Version: 6.00 Build 0)  -->
<svg version="1.1" id="Layer_1" xmlns="http://www.w3.org/2000/svg" xmlns:xlink="http://www.w3.org/1999/xlink" x="0px" y="0px"
	 width="16px" height="16px" viewBox="0 0 16 16" style="enable-background:new 0 0 16 16;" xml:space="preserve">
<path fill="white" d="M16,2.617c0,0.344-0.065,0.677-0.195,1s-0.32,0.609-0.57,0.859L4.945,14.766L0,16l1.234-4.945L11.523,0.766
	c0.25-0.25,0.536-0.44,0.859-0.57S13.039,0,13.383,0c0.359,0,0.698,0.069,1.016,0.207s0.595,0.326,0.832,0.563
	s0.424,0.514,0.563,0.832S16,2.258,16,2.617L16,2.617z M2.547,11.156c0.552,0.182,1.027,0.473,1.426,0.871s0.689,0.874,0.871,1.426
	L13.289,5L11,2.711L2.547,11.156z M1.375,14.625l2.57-0.641c-0.052-0.24-0.137-0.466-0.254-0.68s-0.259-0.404-0.426-0.57
	s-0.357-0.309-0.57-0.426s-0.44-0.202-0.68-0.254L1.375,14.625z M14,4.289c0.13-0.13,0.255-0.253,0.375-0.367
	s0.227-0.236,0.32-0.363s0.168-0.266,0.223-0.414S15,2.823,15,2.625c0-0.224-0.043-0.434-0.129-0.629S14.668,1.629,14.52,1.48
	s-0.32-0.266-0.516-0.352S13.599,1,13.375,1c-0.198,0-0.371,0.027-0.52,0.082s-0.286,0.129-0.414,0.223s-0.249,0.201-0.363,0.32
	S11.841,1.87,11.711,2L14,4.289z"/>
</svg>
