<svg fill="white" id="Layer_1" data-name="Layer 1" xmlns="http://www.w3.org/2000/svg" viewBox="0 0 24 24"><title>open_datasource</title><path d="M21.43,15V12.56H17.84V3.88c0-2.05-4-3.71-8.92-3.71S0,1.83,0,3.88V17.25C0,19.3,4,21,8.92,21c0.42,0,.82,0,1.23,0v2.91h11.2L24,15H21.43Zm-5.08-2.45H16.09l-0.82-.82h-2.8a11.29,11.29,0,0,0,3.88-1.35v2.17ZM8.92,1.65c4.1,0,7.43,1,7.43,2.23S13,6.11,8.92,6.11s-7.43-1-7.43-2.23S4.82,1.65,8.92,1.65ZM1.49,5.93A14.82,14.82,0,0,0,8.92,7.59a14.82,14.82,0,0,0,7.43-1.66V8.34c0,1.23-3.33,2.23-7.43,2.23s-7.43-1-7.43-2.23V5.93Zm8.66,13.52c-0.4,0-.81,0-1.23,0-4.1,0-7.43-1-7.43-2.23V14.85a14.82,14.82,0,0,0,7.43,1.66c0.42,0,.83,0,1.23,0v3Zm0-4.46c-0.4,0-.81,0-1.23,0-4.1,0-7.43-1-7.43-2.23V10.39a14.82,14.82,0,0,0,7.43,1.66c0.42,0,.83,0,1.23,0v3Zm1.47,4.79V13.21h3.06l0.69,0.69L15.49,14H20v1H13.53L13.1,16.07l-1.29,3.23Zm9.18,1.51-0.34,1.08H11.94l0.7-1.74,0.63-1.57,1-2.58h7.93Z"/></svg>