<?xml version="1.0" encoding="utf-8"?>
<!-- Generator: Adobe Illustrator 19.2.1, SVG Export Plug-In . SVG Version: 6.00 Build 0)  -->
<svg version="1.1" id="Layer_1" xmlns="http://www.w3.org/2000/svg" xmlns:xlink="http://www.w3.org/1999/xlink" x="0px" y="0px"
	 width="16px" height="16px" viewBox="0 0 16 16" style="enable-background:new 0 0 16 16;" xml:space="preserve">
<path d="M5,1v3h1h6h3v5h-3v1h4V1H5z M15,3H6V2h9V3z"/>
<polygon points="10,12 10,14 1,14 1,9 4,9 4,8 1,8 1,7 4,7 4,6 0,6 0,15 11,15 11,12 "/>
<path d="M5,6v5h6V6H5z M10,10H6V7h4V10z"/>
<rect x="5" y="3" width="1" height="2"/>
<rect x="7" y="8" width="2" height="1"/>
</svg>
