<svg xmlns="http://www.w3.org/2000/svg" viewBox="0 0 16 16"><style>.icon-canvas-transparent{opacity:0;fill:#2d2d30}.icon-vs-out{fill:#2d2d30}.icon-vs-action-blue{fill:#75beff}.icon-white{fill:#fff}.icon-office-excel{fill:#217346}</style><path class="icon-canvas-transparent" d="M16 0v16H0V0h16z" id="canvas"/><path class="icon-vs-out" d="M15 .211V16h-1.077L4 14.497V8H.586l2-2H0V2h2.586l-2-2h4.828l1.444 1.444L15 .211z" id="outline" style="display: none;"/><path class="icon-office-excel" d="M7.736 2.322L9.414 4 8.176 5.238c.288.785.821 2.228.829 2.197.012-.045 1.22-2.834 1.22-2.834l1.627-.088-1.931 3.703 1.986 3.763-1.727-.099L8.972 9a403.2 403.2 0 0 0-1.168 2.746l-1.525-.088 1.822-3.409-.965-1.971L5.414 8H5v5.637L14 15V1.374l-6.264.948z" id="iconBg"/><path class="icon-white" d="M9.921 8.216l1.932-3.703-1.627.088s-1.208 2.79-1.22 2.834c-.009.031-.542-1.412-.83-2.197l-1.04 1.04.965 1.971-1.822 3.409 1.525.088S8.964 9 8.972 9l1.209 2.88 1.727.099-1.987-3.763z" id="iconFg" style="display: none;"/><g id="colorAction"><path class="icon-vs-action-blue" d="M8 4L5 7H3l2-2H1V3h4L3 1h2l3 3z"/></g></svg>