<svg xmlns="http://www.w3.org/2000/svg" viewBox="0 0 16 16"><style>.icon-canvas-transparent{opacity:0;fill:#2d2d30}.icon-vs-out{fill:#2d2d30}.icon-vs-bg{fill:#c5c5c5}.icon-vs-fg{fill:#2b282e}.icon-vs-action-blue{fill:#75beff}</style><path class="icon-canvas-transparent" d="M16 16H0V0h16v16z" id="canvas"/><path class="icon-vs-out" d="M14 4.556V13c0 .97-.701 2-2 2H4c-.97 0-2-.701-2-2V8H.586L2 6.586V6H0V2h2.258c.04-.07.075-.144.122-.207L.586 0h4.828l1 1h3.646L14 4.556z" id="outline" style="display: none;"/><path class="icon-vs-fg" d="M9 6V4.414l-1 1V6h-.586l-1 1H11v1H4v5h8V6H9zm2 6H5v-1h6v1zm0-2H5V9h6v1zM8.414 3H9v.586L8.414 3z" id="iconFg" style="display: none;"/><path class="icon-vs-bg" d="M5 9h6v1H5V9zm0 3h6v-1H5v1zM9.641 2H7.414l1 1H9v.586L9.414 4 9 4.414V6h3v7H4V8H3v5c0 1 .964 1 .964 1h8c1 0 1.036-1 1.036-1V5L9.641 2zM7.414 6H8v-.586L7.414 6zm-1 1l-1 1H11V7H6.414z" id="iconBg"/><path class="icon-vs-action-blue" d="M8 4L5 7H3l2-2H1V3h4L3 1h2l3 3z" id="colorAction"/></svg>