<?xml version="1.0" encoding="utf-8"?>
<!-- Generator: Adobe Illustrator 19.1.0, SVG Export Plug-In . SVG Version: 6.00 Build 0)  -->
<svg version="1.1" id="Layer_1" xmlns="http://www.w3.org/2000/svg" xmlns:xlink="http://www.w3.org/1999/xlink" x="0px" y="0px"
	 width="16px" height="16px" viewBox="0 0 16 16" enable-background="new 0 0 16 16" xml:space="preserve">
<path fill="#D13438" d="M14.734,5.5c-0.177-0.638-0.429-1.235-0.754-1.793c-0.325-0.557-0.716-1.063-1.172-1.52
	c-0.456-0.456-0.962-0.846-1.52-1.172C10.73,0.69,10.133,0.438,9.495,0.261C8.858,0.085,8.192-0.004,7.5-0.004
	c-0.693,0-1.358,0.089-1.996,0.266S4.268,0.69,3.711,1.016c-0.558,0.326-1.064,0.716-1.52,1.172S1.345,3.15,1.02,3.707
	C0.694,4.265,0.442,4.862,0.266,5.5C0.088,6.138,0,6.804,0,7.496c0,0.693,0.088,1.358,0.266,1.996
	c0.177,0.638,0.428,1.235,0.754,1.793c0.325,0.558,0.716,1.063,1.172,1.52c0.456,0.456,0.962,0.847,1.52,1.172
	c0.557,0.325,1.155,0.577,1.793,0.754s1.303,0.266,1.996,0.266c0.692,0,1.358-0.089,1.996-0.266s1.235-0.429,1.793-0.754
	c0.558-0.325,1.063-0.716,1.52-1.172c0.457-0.456,0.847-0.962,1.172-1.52c0.325-0.558,0.577-1.155,0.754-1.793S15,8.189,15,7.496
	C15,6.804,14.911,6.138,14.734,5.5z M10.961,10.258l-0.703,0.703L7.5,8.211l-2.758,2.75l-0.703-0.703L6.789,7.5l-2.75-2.758
	l0.703-0.703L7.5,6.789l2.758-2.75l0.703,0.703L8.211,7.5L10.961,10.258z"/>
</svg>
