<?xml version="1.0" encoding="utf-8"?>
<!-- Generator: Adobe Illustrator 19.1.0, SVG Export Plug-In . SVG Version: 6.00 Build 0)  -->
<svg version="1.1" id="Layer_1" xmlns="http://www.w3.org/2000/svg" xmlns:xlink="http://www.w3.org/1999/xlink" x="0px" y="0px"
	 width="16px" height="16px" viewBox="0 0 16 16" enable-background="new 0 0 16 16" xml:space="preserve">
<path fill="#6BB700" d="M14.672,5.516c-0.177-0.635-0.429-1.23-0.754-1.785c-0.326-0.555-0.715-1.059-1.168-1.512
	s-0.957-0.842-1.512-1.168c-0.555-0.325-1.15-0.577-1.785-0.754S8.157,0.031,7.469,0.031S6.12,0.12,5.485,0.296
	C4.849,0.473,4.255,0.725,3.7,1.05C3.145,1.376,2.641,1.765,2.188,2.218S1.345,3.175,1.02,3.73C0.694,4.285,0.442,4.88,0.266,5.516
	C0.088,6.151,0,6.812,0,7.5s0.088,1.35,0.266,1.985c0.177,0.636,0.428,1.23,0.754,1.785c0.325,0.554,0.715,1.058,1.168,1.511
	s0.957,0.843,1.512,1.168c0.555,0.326,1.149,0.577,1.785,0.754c0.635,0.178,1.297,0.266,1.984,0.266s1.348-0.088,1.984-0.266
	c0.635-0.177,1.23-0.428,1.785-0.754c0.555-0.325,1.059-0.715,1.512-1.168s0.842-0.957,1.168-1.512
	c0.325-0.555,0.577-1.149,0.754-1.785c0.177-0.634,0.266-1.297,0.266-1.984S14.849,6.152,14.672,5.516z M5.969,10.711L2.617,7.352
	L3.32,6.648l2.649,2.641l5.148-5.141l0.703,0.704L5.969,10.711z"/>
</svg>
