<svg width="16" height="16" viewBox="0 0 16 16" fill="none" xmlns="http://www.w3.org/2000/svg">
<path d="M2.75 9.3125C2.75 8.9069 2.82747 8.51725 2.98242 8.14355C3.13737 7.7653 3.3584 7.43262 3.64551 7.14551L5.19727 5.60059L9.52441 9.92773L7.97949 11.4795C7.69238 11.7666 7.3597 11.9876 6.98145 12.1426C6.60775 12.2975 6.2181 12.375 5.8125 12.375C5.47982 12.375 5.15625 12.3249 4.8418 12.2246C4.5319 12.1198 4.24479 11.9671 3.98047 11.7666L1.74512 13.9951L1.12988 13.3799L3.3584 11.1445C3.15788 10.8802 3.00521 10.5931 2.90039 10.2832C2.80013 9.96875 2.75 9.64518 2.75 9.3125ZM5.8125 11.5C6.10417 11.5 6.38216 11.4453 6.64648 11.3359C6.91536 11.222 7.15234 11.0625 7.35742 10.8574L8.28711 9.92773L5.19727 6.83789L4.26758 7.76758C4.0625 7.97266 3.90299 8.20964 3.78906 8.47852C3.67969 8.74284 3.625 9.02083 3.625 9.3125C3.625 9.61328 3.68197 9.89811 3.7959 10.167C3.90983 10.4313 4.06478 10.6637 4.26074 10.8643C4.46126 11.0602 4.69368 11.2152 4.95801 11.3291C5.22689 11.443 5.51172 11.5 5.8125 11.5ZM11.7666 3.98047C11.9671 4.24479 12.1175 4.53418 12.2178 4.84863C12.3226 5.15853 12.375 5.47982 12.375 5.8125C12.375 6.2181 12.2975 6.61003 12.1426 6.98828C11.9876 7.36198 11.7666 7.69238 11.4795 7.97949L9.92773 9.52441L5.60059 5.19727L7.14551 3.64551C7.43262 3.3584 7.76302 3.13737 8.13672 2.98242C8.51497 2.82747 8.9069 2.75 9.3125 2.75C9.64518 2.75 9.96647 2.80241 10.2764 2.90723C10.5908 3.00749 10.8802 3.15788 11.1445 3.3584L13.3799 1.12988L13.9951 1.74512L11.7666 3.98047ZM10.8574 7.35742C11.0625 7.15234 11.2197 6.91764 11.3291 6.65332C11.443 6.38444 11.5 6.10417 11.5 5.8125C11.5 5.51172 11.4408 5.22917 11.3223 4.96484C11.2083 4.70052 11.0511 4.47038 10.8506 4.27441C10.6546 4.07389 10.4245 3.91667 10.1602 3.80273C9.89583 3.68424 9.61328 3.625 9.3125 3.625C9.02083 3.625 8.74056 3.68197 8.47168 3.7959C8.20736 3.90527 7.97266 4.0625 7.76758 4.26758L6.83789 5.19727L9.92773 8.28711L10.8574 7.35742Z" fill="#424242"/>
</svg>
