<svg xmlns="http://www.w3.org/2000/svg" viewBox="0 0 16 16"><style>.icon-canvas-transparent{opacity:0;fill:#f6f6f6}.icon-vs-out{fill:#f6f6f6}.icon-vs-bg{fill:#424242}.icon-vs-fg{fill:#f0eff1}</style><path class="icon-canvas-transparent" d="M16 0v16H0V0h16z" id="canvas"/><path class="icon-vs-out" d="M8 16c-4.411 0-8-3.589-8-8s3.589-8 8-8 8 3.589 8 8-3.589 8-8 8z" id="outline" style="display: none;"/><path class="icon-vs-fg" d="M14 8c0 3.309-2.691 6-6 6s-6-2.691-6-6 2.691-6 6-6 6 2.691 6 6z" id="iconFg" style="display: none;"/><g id="iconBg"><path class="icon-vs-bg" d="M8 8h3v1H7V4h1v4zm7 0c0 3.859-3.141 7-7 7-3.86 0-7-3.141-7-7 0-3.86 3.14-7 7-7 3.859 0 7 3.14 7 7zm-1 0c0-3.309-2.691-6-6-6S2 4.691 2 8s2.691 6 6 6 6-2.691 6-6z"/></g></svg>