<svg width="16" height="16" viewBox="0 0 16 16" fill="none" xmlns="http://www.w3.org/2000/svg">
<path fill-rule="evenodd" clip-rule="evenodd" d="M3.88882 3.09546C4.95774 2.38123 6.21445 2 7.50002 2C9.22393 2 10.8772 2.68482 12.0962 3.90381C13.3152 5.1228 14 6.77609 14 8.5C14 9.78558 13.6188 11.0423 12.9046 12.1112C12.1903 13.1801 11.1752 14.0133 9.98745 14.5052C8.79973 14.9972 7.49283 15.1259 6.23196 14.8751C4.97108 14.6243 3.81287 14.0052 2.90383 13.0962C1.99479 12.1872 1.37571 11.0289 1.1249 9.76807C0.874098 8.50719 1.00281 7.20029 1.49478 6.01257C1.98674 4.82485 2.8199 3.80969 3.88882 3.09546ZM4.44436 13.0731C5.34883 13.6775 6.41223 14 7.50002 14C8.95871 14 10.3576 13.4205 11.3891 12.389C12.4205 11.3576 13 9.95869 13 8.5C13 7.4122 12.6775 6.34881 12.0731 5.44434C11.4688 4.53987 10.6098 3.83498 9.60476 3.4187C8.59977 3.00242 7.49392 2.89349 6.42703 3.10571C5.36013 3.31793 4.38018 3.84177 3.61099 4.61096C2.8418 5.38015 2.31796 6.36011 2.10574 7.427C1.89352 8.4939 2.00244 9.59974 2.41873 10.6047C2.83501 11.6097 3.53989 12.4688 4.44436 13.0731ZM8 5H7V10H8V5ZM8 11H7V12H8V11Z" fill="#424242"/>
</svg>
