<svg width="16" height="16" viewBox="0 0 16 16" fill="none" xmlns="http://www.w3.org/2000/svg">
<path fill-rule="evenodd" clip-rule="evenodd" d="M9.59436 6.25211L7.99982 1L6.40528 6.25211H0.999817L5.37293 9.65247L3.74942 15L7.99982 11.695L12.2502 15L10.6267 9.65247L14.9998 6.25211H9.59436ZM2.34785 6.72168H6.72026L7.99982 2.50706L7.99983 2.50708L6.72027 6.7217H2.34787L2.34785 6.72168ZM5.8852 9.4722L4.5783 13.7769L4.57833 13.7769L5.88522 9.47221L5.8852 9.4722ZM13.6518 6.7217L13.6518 6.72168H9.27938L9.27939 6.7217H13.6518ZM4.90095 7.6229H7.26829L7.99983 5.21332L8.73138 7.6229H11.0987L9.1835 9.1121L9.91505 11.5217L7.99983 10.0325L6.08462 11.5217L6.81617 9.1121L4.90095 7.6229Z" fill="#424242"/>
</svg>
