<svg width="16" height="16" viewBox="0 0 16 16" fill="none" xmlns="http://www.w3.org/2000/svg">
<path fill-rule="evenodd" clip-rule="evenodd" d="M8.45337 2.02828C9.80698 2.16246 11.0755 2.76898 12.042 3.74809C13.15 4.87311 13.776 6.4012 13.7782 7.99826C13.7786 9.39013 13.3035 10.7372 12.4367 11.8101C11.5701 12.8828 10.3662 13.6147 9.03197 13.8847C7.69789 14.1547 6.31229 13.9472 5.1104 13.296C3.90817 12.6446 2.96232 11.5884 2.4374 10.3044C1.91238 9.02005 1.84212 7.58981 2.23908 6.25829C2.63599 4.92697 3.47438 3.77978 4.60779 3.00985C5.74086 2.24014 7.09976 1.8941 8.45337 2.02828ZM8.55201 1.03316C10.1398 1.19055 11.6248 1.90184 12.7539 3.04585C14.0479 4.35938 14.7758 6.14013 14.7782 7.99764C14.7787 9.61695 14.2261 11.1864 13.2145 12.4385C12.2029 13.6907 10.7949 14.5482 9.23035 14.8648C7.66577 15.1815 6.04142 14.9378 4.63401 14.1752C3.2266 13.4127 2.12319 12.1784 1.51176 10.6828C0.900328 9.18708 0.818694 7.52251 1.28076 5.97259C1.74283 4.42268 2.72002 3.08331 4.04587 2.18265C5.37171 1.28199 6.96419 0.875761 8.55201 1.03316ZM5.44326 5L7.88173 7.47506L10.3202 5L11.0169 5.70711L8.57839 8.18217L11.0165 10.6569L10.3198 11.364L7.88173 8.88927L5.44362 11.364L4.74697 10.6569L7.18508 8.18217L4.7466 5.70711L5.44326 5Z" fill="#A1260D"/>
</svg>
