<svg width="16" height="16" viewBox="0 0 16 16" fill="none" xmlns="http://www.w3.org/2000/svg">
<g clip-path="url(#clip0)">
<path d="M13 4V15H3V4H5V5H4V14H12V5H11V4H13Z" fill="#424242"/>
<path d="M11 5V3H10.01C10.01 2.46957 9.79929 1.96086 9.42421 1.58579C9.04914 1.21071 8.54043 1 8.01 1C7.47957 1 6.97086 1.21071 6.59579 1.58579C6.22071 1.96086 6.01 2.46957 6.01 3H5V5H11ZM8.01 2C8.563 2 9.01 2.447 9.01 3C9.01 3.553 8.572 4 8.02 4C7.469 4 7.01 3.553 7.01 3C7.01 2.447 7.459 2 8.01 2ZM11 9V10H5V9H11ZM5 7H11V8H5V7Z" fill="#424242"/>
</g>
<defs>
<clipPath id="clip0">
<rect width="16" height="16" fill="white"/>
</clipPath>
</defs>
</svg>
