<svg width="16" height="16" viewBox="0 0 16 16" fill="none" xmlns="http://www.w3.org/2000/svg">
<path d="M10.625 3.625V6.6875C10.625 7.06576 10.5589 7.42806 10.4268 7.77441C10.2946 8.11621 10.11 8.42155 9.87305 8.69043C9.64062 8.95931 9.36263 9.1849 9.03906 9.36719C8.72005 9.54492 8.3737 9.66113 8 9.71582V15H7.125V9.71582C6.74674 9.66113 6.39811 9.54492 6.0791 9.36719C5.76009 9.1849 5.4821 8.95931 5.24512 8.69043C5.0127 8.42155 4.8304 8.11621 4.69824 7.77441C4.56608 7.42806 4.5 7.06576 4.5 6.6875V3.625H5.375V1H6.25V3.625H8.875V1H9.75V3.625H10.625ZM9.75 4.5H5.375V6.6875C5.375 6.98828 5.43197 7.27311 5.5459 7.54199C5.65983 7.80632 5.81478 8.03874 6.01074 8.23926C6.21126 8.43522 6.44368 8.59017 6.70801 8.7041C6.97689 8.81803 7.26172 8.875 7.5625 8.875C7.86328 8.875 8.14583 8.81803 8.41016 8.7041C8.67448 8.59017 8.90462 8.43522 9.10059 8.23926C9.30111 8.03874 9.45833 7.80632 9.57227 7.54199C9.69076 7.27311 9.75 6.98828 9.75 6.6875V4.5Z" fill="#C5C5C5"/>
</svg>
