<svg width="28" height="28" viewBox="0 0 28 28" version="1.1" 
    xmlns="http://www.w3.org/2000/svg" 
    xmlns:xlink="http://www.w3.org/1999/xlink">
    <g id="Canvas" fill="none">
        <g id="Union">
            <g id="Union_2">
                <path fill-rule="evenodd" clip-rule="evenodd" d="M 24.2177 7.03198C 25.3377 6.83008 26.7882 6.97705 27.4125 7.39917L 28 7.80322L 27.9082 8.00513C 27.7687 8.28418 27.6927 8.42554 27.6563 8.49341L 27.6328 8.5376C 26.5862 10.5205 24.5666 10.5388 23.6302 10.5205C 21.2433 16.2673 16.1575 19.4438 9.27228 19.4438C 6.09595 19.4438 3.65399 18.4707 2.03827 16.5427C -0.109927 14.0273 -0.109927 10.7224 0.0736672 9.67603L 0.11041 9.45557L 19.1319 9.45557C 20.105 9.47412 20.8578 9.19873 21.2433 8.99658C 20.8761 8.40918 20.7476 7.74805 20.7109 7.38086C 20.6191 6.33447 20.8761 5.23267 21.4086 4.44336L 21.8125 3.8374L 22.4184 4.24121C 23.4833 5.06738 24.0709 5.9856 24.2177 7.03198ZM 15.2946 2.62549L 12.4119 2.62549L 12.4119 0L 15.2946 0L 15.2946 2.62549ZM 15.2946 5.78345L 12.4119 5.78345L 12.4119 3.15796L 15.2946 3.15796L 15.2946 5.78345ZM 11.8795 5.78345L 8.99688 5.78345L 8.99688 3.15796L 11.8795 3.15796L 11.8795 5.78345ZM 8.46441 5.78345L 5.58185 5.78345L 5.58185 3.15796L 8.46441 3.15796L 8.46441 5.78345ZM 5.04938 8.94165L 2.16675 8.94165L 2.16675 6.29761L 5.04938 6.29761L 5.04938 8.94165ZM 8.46441 8.94165L 5.58185 8.94165L 5.58185 6.29761L 8.46441 6.29761L 8.46441 8.94165ZM 11.8795 8.94165L 8.99688 8.94165L 8.99688 6.29761L 11.8795 6.29761L 11.8795 8.94165ZM 15.2946 8.94165L 12.4119 8.94165L 12.4119 6.29761L 15.2946 6.29761L 15.2946 8.94165ZM 18.728 8.94165L 15.827 8.94165L 15.827 6.29761L 18.728 6.29761L 18.728 8.94165ZM 17.6997 18.8562C 17.9017 18.8562 18.067 18.6909 18.067 18.489C 18.067 18.2871 17.9017 18.1218 17.6997 18.1218C 17.4977 18.1218 17.3325 18.2871 17.3325 18.489C 17.3325 18.6909 17.4977 18.8562 17.6997 18.8562ZM 17.6997 18.7827C 17.5345 18.7827 17.4243 18.6543 17.4243 18.489C 17.4243 18.3237 17.5345 18.1953 17.6997 18.1953C 17.865 18.1953 17.9752 18.3237 17.9752 18.489C 17.9752 18.6543 17.865 18.7827 17.6997 18.7827ZM 17.5529 18.6726L 17.6447 18.6726L 17.6447 18.5073L 17.6814 18.5073C 17.7181 18.5073 17.7548 18.5256 17.7548 18.5625C 17.7629 18.5786 17.7674 18.5947 17.7715 18.6094C 17.7767 18.6279 17.7812 18.644 17.7915 18.6543L 17.8834 18.6543C 17.8834 18.636 17.8834 18.6177 17.865 18.5625C 17.8466 18.5073 17.8282 18.489 17.7915 18.4707C 17.8282 18.4524 17.865 18.4155 17.865 18.3789C 17.865 18.342 17.8466 18.3237 17.8282 18.3054C 17.813 18.3054 17.801 18.3022 17.7869 18.2986C 17.7668 18.2935 17.7427 18.2871 17.6997 18.2871C 17.6567 18.2871 17.6263 18.2935 17.6011 18.2986C 17.5832 18.3022 17.5681 18.3054 17.5529 18.3054L 17.5529 18.6726ZM 17.6814 18.4707L 17.6447 18.4707L 17.6447 18.3606L 17.6997 18.3606C 17.7548 18.3606 17.7732 18.3789 17.7732 18.4155C 17.7732 18.4524 17.7364 18.4707 17.6814 18.4707Z" transform="translate(0.867859 4.73779)" fill="#f6f6f6"/>
            </g>
        </g>
    </g>
</svg>

