<svg width="16px" height="16px" viewBox="0 0 16 16" version="1.1" xmlns="http://www.w3.org/2000/svg" xmlns:xlink="http://www.w3.org/1999/xlink">
    <g id="stop" transform="translate(2.000000, 2.000000)" fill="#F48771">
        <path d="M6,0 C2.69142857,0 0,2.69142857 0,6 C0,9.30857143 2.69142857,12 6,12 C9.30857143,12 12,9.30857143 12,6 C12,2.69142857 9.30857143,0 6,0 Z M6.00004286,1.11432857 C7.11432857,1.11432857 8.1429,1.49147143 8.97428571,2.11718571 L2.11718571,8.97428571 C1.49147143,8.1429 1.11432857,7.11432857 1.11432857,6.00004286 C1.11432857,3.30861429 3.30861429,1.11432857 6.00004286,1.11432857 Z M6.00002571,10.8942857 C4.88574,10.8942857 3.85716857,10.5171429 3.02574,9.89142857 L9.88285714,3.03432 C10.5085714,3.86574857 10.8857143,4.89432 10.8857143,6.00860571 C10.8857143,8.7 8.69142857,10.8942857 6.00002571,10.8942857 Z" id="Shape"></path>
    </g>
</svg>