<svg xmlns="http://www.w3.org/2000/svg" width="16" height="16">
<style>path,circle{fill-opacity:1;fill-rule:nonzero;stroke:none;}</style>
<path style="fill:#525252;" d="m 2.604,10.221 c 0,0 0.292,0.117 0.729,0.117 0.437,0 0.729,-0.117 0.729,-0.117 V 15 H 2.604 Z"/>
<path style="fill:#424242;" d="m 7.27,4.965 c 0,0 0.292,0.117 0.729,0.118 C 8.437,5.083 8.729,4.965 8.729,4.965 V 9.441 L 7.270,9.167 Z"/>
<path style="fill:#424242;" d="m 7.27,11.803 1.458,0.268 V 15 H 7.270 Z"/>
<path style="fill:#858585;" d="m 2.604,1 h 1.458 v 4.783 c 0,0 -0.292,-0.117 -0.742,-0.117 -0.425,0 -0.716,0.118 -0.716,0.117 z"/>
<path style="fill:#656565;" d="m 4,10.238 c 0.055,0.041 0.001,0.02 0.501,0.242 1,0.437 2.206,0.638 3.372,0.857 1.167,0.219 2.068,0.333 2.819,0.661 0.327,-0.49 0.737,-0.811 1.309,-0.979 -0.111,-0.075 0,-0.029 -0.5,-0.248 C 10.5,10.334 9.294,10.133 8.127,9.914 6.961,9.695 6.072,9.552 5.322,9.223 5.085,9.592 4.695,10.029 3.998,10.238 Z"/>
<circle style="fill:#525252;" cx="3.33" cy="8" r="1.75"/>
<circle style="fill:#424242;" cx="8" cy="2.75" r="1.75"/>
<circle style="fill:#656565;" cx="12.67" cy="13.25" r="1.75"/>
</svg>
