<svg xmlns="http://www.w3.org/2000/svg" width="24" height="24">
<style>path,circle{fill-opacity:1;fill-rule:nonzero;stroke:none;}</style>
<path style="fill:#0085d9" d="m 2.75,15.808 c 0,0 0.5,0.2 1.25,0.2 0.75,0 1.25,-0.2 1.25,-0.2 l 0,8.192 -2.5,0 z"/>
<path style="fill:#d9008f" d="m 10.75,6.7964375 c 0,0 0.5,0.2 1.25,0.203125 0.750257,-8.355e-4 1.25,-0.203125 1.25,-0.203125 L 13.25,14.47 10.75,14 z"/>
<path style="fill:#d9008f" d="m 10.75,18.52 2.5,0.46 0,5.02 -2.5,0 z"/>
<path style="fill:#808080" d="m 2.75,0 2.5,0 0,8.2 C 5.25,8.2 4.75,8 3.9779029,8 3.25,8.015175 2.75,8.203 2.75,8.2 z"/>
<path style="fill:#00d90a" d="M 5.140625,15.835938 C 5.23502,15.905738 5.143195,15.875148 6,16.25 c 1.7136032,0.749701 3.78125,1.09375 5.78125,1.46875 2,0.375 3.545654,0.571029 4.832051,1.133828 0.560272,-0.839749 1.263386,-1.390304 2.244583,-1.678078 C 18.667708,17.046412 18.856802,17.124851 18,16.75 c -1.713603,-0.749701 -3.78125,-1.09375 -5.78125,-1.46875 -2,-0.375 -3.5228672,-0.621464 -4.809264,-1.184263 -0.406834,0.63185 -1.0739799,1.382044 -2.268861,1.738951 z"/>
<circle style="fill:#0085d9" cx="4" cy="12" r="3"/>
<circle style="fill:#d9008f" cx="12" cy="3" r="3"/>
<circle style="fill:#00d90a" cx="20" cy="21" r="3"/>
</svg>