<svg xmlns="http://www.w3.org/2000/svg" width="16" height="16" viewBox="0 0 16 16">
  <title>Server_green</title>
  <path d="M9,13a4,4,0,0,1,4-4V0H3V16h7.382A3.974,3.974,0,0,1,9,13Z" fill="#f6f6f6"/>
  <rect width="16" height="16" fill="#f6f6f6" fill-opacity="0"/>
  <path d="M10,4H6V3h4Zm0,1H6V6h4Z" fill="#f0eff1"/>
  <circle cx="13" cy="13" r="3" fill="#3bb44a"/>
  <circle cx="13" cy="13" r="3" fill="#3bb44a"/>
  <path d="M9,13a4,4,0,0,1,3-3.858V1H4V15H9.556A3.959,3.959,0,0,1,9,13ZM6,3h4V4H6ZM6,5h4V6H6Z" fill="#424242"/>
</svg>
