<svg width="24" height="24" version="1.1" viewBox="0 0 24 24" xmlns="http://www.w3.org/2000/svg">
 <path d="m13.295 11.033v-3.3829l2.1264-2.136c0.77323-0.76357 0.91821-1.9814 0.37695-2.9286-0.43494-0.76357-1.2275-1.2178-2.0684-1.2178-0.20297 0-0.43494 0.028996-0.61858 0.086988-1.0439 0.2803-1.7494 1.2468-1.7494 2.3294v3.1316l-3.0349 3.0639c-1.6045 1.6334-2.0877 4.0788-1.2082 6.2148 0.74423 1.8364 2.368 3.1026 4.2431 3.4312v0.58959c0 0.2513-0.2223 0.48327-0.48327 0.48327h-1.4498v1.9331h1.4498c1.3048 0 2.4163-1.0729 2.4163-2.4163v-0.48327c1.9621 0 4.0208-1.8558 4.0208-4.5911 0-2.223-1.8558-4.1078-4.0208-4.1078m0-7.249c0-0.2223 0.10632-0.39628 0.30929-0.45427 0.21264-0.057992 0.43494 0.028996 0.54126 0.2223 0.11598 0.19331 0.07732 0.43494-0.07732 0.58959l-0.77323 0.83122v-1.1888m-1.9331 7.7323c-0.93754 0.61858-1.6431 1.6818-1.8944 2.6676l1.8944 0.5026v2.9479c-1.0922-0.28996-2.0297-1.0825-2.484-2.1844-0.57026-1.4111-0.26097-3.0156 0.80223-4.0981l1.6818-1.7688v1.9331m1.9331 6.2825v-4.8907c1.1308 0 2.1071 1.0632 2.1071 2.2327 0 1.6914-1.2275 2.658-2.1071 2.658z" fill="#ff5722" stroke-width=".96654"/>
</svg>
