<svg version="1.1" viewBox="0 0 24 24" xmlns="http://www.w3.org/2000/svg"><g transform="matrix(.66949 0 0 .66949 5.6001 2.6725)" style="fill:#9575cd"><path d="m9.5594-1.6112c-8.5849 0-15.543 6.9586-15.543 15.543 0 8.5848 6.9585 15.543 15.543 15.543 8.5849 0 15.543-6.9585 15.543-15.543 0-1.4521-.19809-2.8571-.57053-4.1907h-.0029a.77582.77582 0 0 0-.03765-.13901c-.0042-.015545-.02028-.046337-.02028-.046337a.77613.77613 0 0 0-.7037-.45179.77721.77721 0 0 0-.77905.77616c0 .087358.01702.17088.04345.24906l-.0029.0029a14.045 14.045 0 0 1 .5184 3.7997c0 3.7367-1.453 7.2512-4.0951 9.8931-2.6423 2.6425-6.1566 4.0951-9.8931 4.0951-3.7367 0-7.2512-1.4529-9.8931-4.0951-2.6427-2.6423-4.098-6.1568-4.098-9.8931 0-3.7368 1.4556-7.2511 4.098-9.8931 2.642-2.6425 6.1566-4.0951 9.8931-4.0951 3.3368 0 6.4936 1.1599 9.0127 3.29a1.8992 1.8992 0 0 0-.13032.69507c0 1.0494.85033 1.8998 1.8998 1.8998 1.0492 0 1.8998-.85041 1.8998-1.8998 0-1.0494-.85058-1.8998-1.8998-1.8998-.22897 0-.4483.041698-.65162.11584-2.721-2.34-6.2604-3.7562-10.131-3.7562zm-1.9636 7.2461-5.7256 14.86h3.5883l.93544-2.5167h5.4099l-.97889-2.7861h-3.5622l2.3169-6.3917 4.1212 11.694h3.5854l-5.7256-14.86z" style="fill:#ec407a;stroke-width:.16356"/></g></svg>
