<svg version="1.1" viewBox="0 0 24 24" xmlns="http://www.w3.org/2000/svg"><path d="m8.0417 3.0359c-.28774.078252-.56654.16598-.73703.23713-.52668.21982-.98314.49155-1.3848.82444-.12441.10311-.24788.19883-.27468.21042-.12652.054729-.70093.65437-1.0071 1.0516-1.7319 2.2465-2.4417 5.5125-1.8599 8.565.075453.39591.33846 1.362.46441 1.7055.76461 2.0854 2.1369 3.7186 3.9283 4.6731 1.4125.75259 3.0843 1.0604 4.8224.88717.34798-.03467.52376-.06278 1.0844-.16574.23343-.04287 1.3817-.38454 1.6589-.49424 2.3921-.94675 4.3656-2.5822 5.5722-4.6185.50665-.85507.79584-1.6685 1.0291-2.8814.36994-1.9236-.5021-4.2624-2.3238-6.2294-2.6435-2.8542-6.788-4.4585-10.181-3.9422-.20701.031508-.50408.098905-.79182.17716zm.4205 1.5069c.27995-.075961.57525-.13864.81289-.1667.65238-.077031 1.3037-.069092 1.9943.023737 3.131.42089 6.308 2.4879 7.8054 5.0768.49823.8614.78835 1.7899.80342 2.5787.01211.63417-.129 1.1793-.43165 1.6782-.15489.25532-.3045.43314-.54842.6473-.61288.53812-1.4549.87659-2.5016 1.0051-.54773.06723-.91934.20565-1.2289.46014-.06823.05609-.64296.58818-1.2792 1.1823-1.2482 1.1656-1.2374 1.1562-1.4202 1.1033-.04719-.01365-.11537-.05265-.15105-.08639-.12965-.12259-.12528-.1612.07962-1.2241.1048-.5436.18866-1.0528.18768-1.132-.0034-.27051-.11283-.54687-.29759-.75093-.11288-.12462-.29934-.24365-.54652-.34914-2.3593-1.0069-4.3434-2.7757-5.2958-4.7217-.2041-.41706-.29285-.65253-.41172-1.0883-.28952-1.0613-.22-1.9129.21878-2.683.32221-.56549.77766-.96396 1.4876-1.3018.17803-.084725.44303-.17557.72299-.25153z" style="fill:#8d6e63;stroke-width:.023397"/></svg>
