<svg version="1.1" viewBox="0 0 24 24" xmlns="http://www.w3.org/2000/svg"><g transform="matrix(.83566 0 0 .83566 .057965 2.0018)"><g><path transform="matrix(1.1967 0 0 1.1967 -.070037 -2.396)" d="m2.4688 2.9219v5.4473h1.8145v-5.4473zm12.709 1.8164c-3.268 0-6.0285 2.1585-6.9453 5.127l-2.1328 2.1348 2.1328 2.1328c.91685 2.9684 3.6773 5.1289 6.9453 5.1289 4.0123 0 7.2617-3.2494 7.2617-7.2617s-3.2494-7.2617-7.2617-7.2617zm2.9414 3.7031 1.3418 1.6289-5.4902 5.4883-3.1777-3.4668 1.3398-1.3398 1.8379 1.8379 4.1484-4.1484zm-14.742 1.7422c-.99855 0-1.8164.81786-1.8164 1.8164 0 1.0076.81786 1.8164 1.8164 1.8164 1.0076 0 1.8145-.80878 1.8145-1.8164 0-.99854-.80683-1.8164-1.8145-1.8164zm-.9082 5.4473v5.4473h1.8145v-5.4473z" style="fill:#009688;stroke-width:.90777"/></g></g></svg>
