<svg clip-rule="evenodd" fill-rule="evenodd" stroke-linejoin="round" stroke-miterlimit="1.4142" version="1.1" viewBox="0 0 24 24" xml:space="preserve" xmlns="http://www.w3.org/2000/svg"><path d="m10 4h-6c-1.11 0-2 .89-2 2v12c0 1.097.903 2 2 2h16c1.097 0 2-.903 2-2v-10c0-1.11-.9-2-2-2h-8l-2-2z" fill="#e57373" fill-rule="nonzero" style="fill:#ffb300"/><path d="m12.91 14.24h2.402l-1.702-1.702c-.64868 0-1.1753-.52665-1.1753-1.1817a1.1753 1.1753 0 0 1 1.1753-1.1753c.6551 0 1.1817.52665 1.1817 1.1753l1.702 1.702v-2.402c-.456-.46242-.456-1.2074 0-1.6634.456-.46242 1.201-.46242 1.657 0 .456.456.456 1.201 0 1.6634v2.402l1.7084-1.702c0-.64868.52022-1.1753 1.1753-1.1753.64868 0 1.1753.52665 1.1753 1.1753 0 .6551-.52665 1.1817-1.1753 1.1817l-1.702 1.702h2.402c.46242-.456 1.2074-.456 1.6634 0 .46242.456.46242 1.201 0 1.657-.456.456-1.201.456-1.6634 0h-2.402l1.702 1.7084c.64868 0 1.1753.52022 1.1753 1.1753a1.1753 1.1753 0 0 1-1.1753 1.1753c-.6551 0-1.1753-.52665-1.1753-1.1753l-1.7084-1.702v2.402c.456.46242.456 1.2074 0 1.6634-.456.46242-1.201.46242-1.657 0-.456-.456-.456-1.201 0-1.6634v-2.402l-1.702 1.702c0 .64868-.52665 1.1753-1.1817 1.1753-.64868 0-1.1753-.52665-1.1753-1.1753 0-.6551.52665-1.1753 1.1753-1.1753l1.702-1.7084h-2.402c-.46242.456-1.2074.456-1.6634 0-.46242-.456-.46242-1.201 0-1.657.456-.456 1.201-.456 1.6634 0z" style="fill:#fff9c4;stroke-width:.64225"/></svg>
