<svg clip-rule="evenodd" fill-rule="evenodd" stroke-linejoin="round" stroke-miterlimit="1.4142" version="1.1" viewBox="0 0 24 24" xml:space="preserve" xmlns="http://www.w3.org/2000/svg"><path d="m10 4h-6c-1.11 0-2 .89-2 2v12c0 1.097.903 2 2 2h16c1.097 0 2-.903 2-2v-10c0-1.11-.9-2-2-2h-8l-2-2z" fill="#e57373" fill-rule="nonzero" style="fill:#fbc02d"/><path d="m23.626 20.068v.65496h-11.789v-.65496l1.3099-1.3099v-3.9298c0-2.0304 1.3296-3.8184 3.2748-4.3948v-.18994a1.3099 1.3099 0 0 1 1.3099-1.3099 1.3099 1.3099 0 0 1 1.3099 1.3099v.18994c1.9452.57637 3.2748 2.3644 3.2748 4.3948v3.9298l1.3099 1.3099m-4.5847 1.3099a1.3099 1.3099 0 0 1-1.3099 1.3099 1.3099 1.3099 0 0 1-1.3099-1.3099" style="fill:#fff9c4;stroke-width:.65496"/></svg>
