<svg clip-rule="evenodd" fill-rule="evenodd" stroke-linejoin="round" stroke-miterlimit="1.4142" version="1.1" viewBox="0 0 24 24" xml:space="preserve" xmlns="http://www.w3.org/2000/svg"><path d="m10 4h-6c-1.11 0-2 0.89-2 2v12c0 1.097 0.903 2 2 2h16c1.097 0 2-0.903 2-2v-10c0-1.11-0.9-2-2-2h-8l-2-2z" fill="#ff5722" fill-rule="nonzero"/><path id="back" d="m19.57 8.483c-0.63744 0.012297-1.2717 0.18934-1.8321 0.54635l-2.8631 1.8246a3.2825 3.2825 0 0 0-1.4842 2.1957 3.4615 3.4615 0 0 0 0.34026 2.222 3.2869 3.2869 0 0 0-0.49066 1.2274 3.4977 3.4977 0 0 0 0.59828 2.6479c1.1417 1.6336 3.3966 2.1177 5.0269 1.0791l2.8632-1.8168a3.2935 3.2935 0 0 0 1.4842-2.1957 3.4603 3.4603 0 0 0-0.3414-2.2209 3.3077 3.3077 0 0 0 0.49183-1.2274 3.5021 3.5021 0 0 0-0.59828-2.6479v-0.0088c-0.74926-1.072-1.9779-1.6491-3.1949-1.6256zm0.25116 1.4023a2.2736 2.2736 0 0 1 1.7646 0.97638 2.1013 2.1013 0 0 1 0.36012 1.5919 2.2121 2.2121 0 0 1-0.06809 0.26673l-0.05491 0.16473-0.14602-0.10982a3.7085 3.7085 0 0 0-1.1198-0.55989l-0.10973-0.0318 0.0098-0.10983a0.64331 0.64331 0 0 0-0.11631-0.42592 0.68394 0.68394 0 0 0-0.73112-0.26462 0.62795 0.62795 0 0 0-0.17572 0.07687l-2.8642 1.8213a0.59832 0.59832 0 0 0-0.26902 0.39851 0.64111 0.64111 0 0 0 0.10982 0.48083 0.68614 0.68614 0 0 0 0.73 0.27226 0.65871 0.65871 0 0 0 0.17571-0.07687l1.0978-0.69597a2.0431 2.0431 0 0 1 0.58175-0.25584 2.2725 2.2725 0 0 1 2.4405 0.90465 2.1035 2.1035 0 0 1 0.36003 1.5919 1.9761 1.9761 0 0 1-0.89252 1.324l-2.8643 1.8246a2.1057 2.1057 0 0 1-0.58175 0.25574 2.2758 2.2758 0 0 1-2.4416-0.90568 2.1013 2.1013 0 0 1-0.35898-1.5919 1.8663 1.8663 0 0 1 0.06799-0.26453l0.05386-0.16473 0.14706 0.10983a3.7085 3.7085 0 0 0 1.1166 0.55549l0.10973 0.0318-0.0098 0.10983a0.64771 0.64771 0 0 0 0.11965 0.42267 0.68614 0.68614 0 0 0 0.73552 0.27226 0.64223 0.64223 0 0 0 0.17562-0.07688l2.8587-1.8246a0.595 0.595 0 0 0 0.26902-0.39966 0.63343 0.63343 0 0 0-0.10983-0.47969 0.68614 0.68614 0 0 0-0.73552-0.27227 0.62795 0.62795 0 0 0-0.17562 0.07678l-1.0978 0.69714a2.0968 2.0968 0 0 1-0.58072 0.25469 2.2747 2.2747 0 0 1-2.4372-0.90455 2.1035 2.1035 0 0 1-0.35678-1.5919 1.9761 1.9761 0 0 1 0.89252-1.324l2.8675-1.8246a2.0914 2.0914 0 0 1 0.5775-0.25469 2.2736 2.2736 0 0 1 0.67582-0.070665z" fill="#ffccbc" stroke-width=".10978"/></svg>
