<svg id="svg" version="1.1" viewBox="0 0 16 16" xmlns="http://www.w3.org/2000/svg"><g transform="translate(3.2316e-7 1.1732e-6)" style="fill:#ff7043" aria-label="F"><path d="m12.564 5.0924h-.61515q-.17224-.64796-.72177-1.3861-.54133-.73818-1.0417-.812-.25426-.032808-.60695-.049212-.34448-.016404-.78739-.016404h-1.9521v4.6751h1.3369q.60695 0 .94323-.12303.33628-.13123.57414-.3937.16404-.18044.29527-.55774.13943-.38549.18044-.8202h.62335v4.5685h-.62335q-.024606-.36089-.17224-.8202-.13943-.45931-.30347-.66436-.24606-.30347-.62335-.4101-.36909-.11483-.89402-.11483h-1.3369v4.0108q0 .27067.10663.48392.10663.21325.37729.34448.12303.05741.53313.13943.4101.08202.62335.09022v.58234h-5.0442v-.58234q.24606-.0164.65616-.04921.4101-.04101.53313-.09842.24606-.10663.35269-.31168.11483-.21325.11483-.50852v-8.3988q0-.27067-.090222-.47572-.090222-.21325-.37729-.34448-.22145-.10663-.59874-.18865-.36909-.08202-.59054-.098424v-.58234h9.1288z" style="fill:#ff7043;stroke-width:1.1453"/></g></svg>
