<svg version="1.1" viewBox="0 0 24 24" xmlns="http://www.w3.org/2000/svg"><path d="m13.083 2.9365c1.0029.40118 1.3993 1.9797.87544 3.5395-.51938 1.5519-1.7452 2.4973-2.7526 2.1039-.9996-.3888-1.4039-1.9718-.88782-3.5362.51153-1.5565 1.753-2.4927 2.765-2.1072m5.6104 3.2391c.84768.68819.64977 2.227-.42672 3.4573-1.1046 1.2246-2.6698 1.6705-3.5142.99468-.85221-.68034-.64646-2.2146.44573-3.4358 1.0889-1.2336 2.6541-1.6795 3.4952-1.0161m-11.892-2.0534c1.1165.13196 1.9295 1.5325 1.8629 3.1157-.11944 1.5841-1.0755 2.7688-2.1841 2.6414-1.1087-.12744-1.9184-1.5156-1.827-3.1054.091366-1.5898 1.0676-2.7734 2.1482-2.6517m14.124 8.1545c.64568.87497.10883 2.3122-1.2223 3.1862s-2.9382.86688-3.6029-.02953c-.66469-.8964-.11668-2.3167 1.1955-3.2122 1.3378-.84928 2.9572-.84544 3.6297.0555m-6.194 7.7021c-.39446.75571-1.4306 1.2456-2.2821 1.162-1.776-.1675-2.6694-2.4618-4.2309-3.3634-1.5615-.90152-4.0425-.48214-5.0203-1.9778-.56268-.83751-.51517-2.1702.076108-2.9587.81625-1.0876 2.5832-.90442 3.9088-1.2795 1.7451-.46761 3.7303-2.0939 5.3075-1.1834 1.5693.90605 1.2187 3.4342 1.6211 5.1836.31828 1.4602 1.3033 3.1065.61979 4.4172z" style="fill:#90a4ae;stroke-width:.90605"/></svg>
