<svg style="clip-rule:evenodd;fill-rule:evenodd;stroke-linejoin:round;stroke-miterlimit:1.4142" version="1.1" viewBox="0 0 201 201" xml:space="preserve" xmlns="http://www.w3.org/2000/svg"><path d="m161.96 61.952c-3.0434 13.905-32.633 79.576-36.431 94.457-2.6978 10.575 11.229 23.851 13.555 15.159 6.8402-25.548 37.32-86.251 39.023-98.893 1.4682-10.897-14.66-17.516-16.147-10.723zm-37.128 48.192c1.8586-.47118 3.8217.17033 5.045 1.6473 1.2233 1.4757 1.4881 3.5245.68129 5.2626.0224.0125.0211.015.0211.0162-2.5759 5.5472-7.6607 9.5193-13.667 10.676-3.4002.64522-7.2368 1.1823-11.504 1.5876-15.316 1.4533-31.743-17.007-20.624-16.49 16.552.77081 29.747-.44631 40.047-2.699zm16.256-17.347c-1.6522 4.1698-5.2874 7.2306-9.6772 8.1518-20.232 4.2419-49.32 2.5909-63.662-.88765-13.939-3.3803-23.102-23.665-14.05-20.64 21.019 7.0242 60.118 9.3465 82.248 6.8377 1.6908-.23372 3.3803.44756 4.4358 1.7902 1.0567 1.3414 1.3216 3.1429.69745 4.7329.0114.0038.0114.0038.008.01491zm8.398-23.8c-1.3601 4.4719-5.3135 7.6595-9.9731 8.0374-40.633 2.9241-92.83-6.466-107.91-22.019-11.329-11.689-10.603-34.166-4.1611-27.023 24.417 27.072 84.437 34.865 117.12 34.521 1.61-.03605 3.1404.70118 4.1138 1.9842s1.2731 2.9551.80561 4.4967c.003.0012.003.0012.002.0024z" style="fill:#ffc400;stroke-width:1.2432"/></svg>
