<svg version="1.1" viewBox="0 0 100 100" xmlns="http://www.w3.org/2000/svg"><defs><style>.cls-1{fill:#fff;}</style></defs><title>Nrwl_WhiteHorizontal</title><path d="m40.434 15.644a34.31 34.31 0 0 0-21.68 60.776 7.058 7.058 0 0 1-2.0688-.74632 6.813 6.813 0 0 0-3.9141-.89599 6.9744 6.9744 0 0 0-6.0361 9.4786 19.901 19.901 0 0 1 5.665-1.1953 20.194 20.194 0 0 1 3.4076.05946 17.666 17.666 0 0 0 2.8151.04101c.49404-.03586.98401-.08821 1.4701-.15992a17.206 17.206 0 0 0 5.868-2.0339 32.625 32.625 0 0 0 4.3938 1.6751 44.398 44.398 0 0 0 29.929-1.9724 5.3428 5.3428 0 0 0 1.1953-.74837l32.258 2.9443-30.775-6.1469c-.04784-1.0638-.98011-1.793-1.3327-2.2472a1.3805 1.3805 0 0 1-.32395-.70531 16.447 16.447 0 0 0-14.994-15.209 5.0082 5.0082 0 0 0-1.792-1.9417 5.038 5.038 0 0 1-1.9068-3.9633 5.6237 5.6237 0 0 0-4.9843 4.3979 13.955 13.955 0 0 1-3.7767-22.279 18.025 18.025 0 0 1 13.147-5.6302 18.258 18.258 0 0 1 17.678 13.53 9.1438 9.1438 0 0 1-5.4436 3.2047 9.0541 9.0541 0 0 0-7.375 7.4939c3.5141 0 5.8517 4.7814 12.378 4.7814a5.9225 5.9225 0 0 0 5.4846-3.6824 5.9345 5.9345 0 0 0 5.4928 3.6824 11.72 11.72 0 0 0 .76272-.03281v.01435c.07915-.0048.1518-.01845.22964-.0246a11.72 11.72 0 0 0 .45517-.04716c.23616-.02773.46854-.06046.69301-.10047a11.72 11.72 0 0 0 .37111-.07176c.2615-.05552.51433-.12046.76067-.19068a11.72 11.72 0 0 0 .3014-.08611c.30883-.09709.60708-.20187.89394-.3178a11.72 11.72 0 0 0 .12712-.0492c.03428-.01428.0665-.02853.10047-.04306a11.72 11.72 0 0 0 .42032-.18658v-.0061c3.0048-1.4109 4.8645-3.6229 7.2602-3.6229a9.0541 9.0541 0 0 0-7.2602-7.4693h-.0061a9.0541 9.0541 0 0 0-.10867-.02461 9.1438 9.1438 0 0 1-1.874-.55769c-.02061-.0088-.0409-.01577-.06151-.0246a9.1438 9.1438 0 0 1-.75448-.3629c-.04304-.02324-.08444-.04987-.12712-.07381a9.1438 9.1438 0 0 1-.61109-.3712c-.03652-.02421-.07454-.04907-.11072-.07381a9.1438 9.1438 0 0 1-.66636-.50234c-1.0844-.89479-1.9528-2.0271-2.403-3.299a34.31 34.31 0 0 0-33.17-24.983zm-15.232 26.546c.63946.04183 1.1114.82857 1.0457 1.7489-.06574.92035-.64011 1.6267-1.2856 1.5849-.64544-.04184-1.1053-.83062-1.0395-1.751s.63994-1.6247 1.2794-1.5828zm-4.1724 2.9996-.01639.0164c.32272 0 .59664.3538.59664.81398s-.22677.84303-.54949.85498c-.32272.01196-.59664-.34765-.59664-.80783s.24914-.8596.56589-.87754zm-.25424 5.2919c.53821.03287 1.1005.59753 1.2835 1.3819.20917.89645-.1311 1.747-.75862 1.8904-.62751.14343-1.304-.46104-1.5131-1.3635-.20917-.90242.14956-1.7574.77707-1.9068l-.01846.01846c.0747-.01794.15275-.02522.22964-.0205zm4.0699 6.4257c.08054-.0069.16178-.0068.24604 0 .56174.04487 1.1916.38711 1.6772.9698.77692.9323.86055 2.1214.20913 2.6593-.65142.53787-1.7942.21469-2.5711-.71761-.77692-.93231-.84262-2.1214-.20913-2.6593.18321-.14959.40629-.23181.6479-.25219zm17.391 17.159c.316.01196.72081.16119 1.181.27474.92035.2271 1.7264.19756 1.5172 1.0641l-.01641.01846a1.7152 1.7152 0 0 1-3.3297-.80783c.10459-.43627.3319-.56144.6479-.54949z" style="fill:#00b8d4;stroke-width:.59763"/></svg>
