<svg version="1.1" viewBox="0 0 24 24" xmlns="http://www.w3.org/2000/svg"><path d="m22.847 7.5107c-.09134-.30992-.37523-.52194-.70647-.5276-.0986-.00172-.19551.015482-.28795.051139-.23666.091175-.60515.19622-1.0636.20914-.91431-.67118-3.1314-2.2925-4.4477-3.2035 0 0 .17723.53112.41738 1.5216 0 0-2.0858-1.1931-3.4724-2.1061 0 0 .50545 1.0499.54284 1.3876 0 0-1.6628-.30864-4.0925-.8642 0 0 1.7964 1.0176 2.2326 1.6193 0 0-2.1796-.18106-4.7472-.36799 0 0 1.2912.66403 1.9175 1.1932 0 0-2.3357.2938-4.112.34782 0 0 1.2985 1.0246 1.8211 1.5189 0 0-2.2312.81435-4.9043 2.2656 0 0 1.3933.09114 2.3932.42049 0 0-1.2313 1.0219-3.4407 3.3756 0 0 1.3923-.02606 2.5176-.15471 0 0-.90276 1.3103-2.0383 3.6724 0 0 .75807-.44922 1.4872-.60415 0 0 .030273 2.6738 1.533 3.1277l.00127-.0018c.073586.02392.14405.03319.20536.03427.073768.0013.15106-.0086.22979-.02894.48169-.12449.85259-.57594 1.282-1.0985.14212-.17294.28817-.3504.44327-.52343.17146-.2259.39364-.46058.65994-.66554.549-.42267 1.3055-.73428 2.2182-.57489.98939.12043 1.5889 1.0933 2.072 1.8775.36985.6003.662 1.0745 1.0807 1.1265.02939.004.05877.0058.08737.0063.64114.01102.87941-.70949 1.1811-1.6215l.06161-.18611c.0031.0058.0059.01177.009.01776.22428-.74018.64897-1.5347 1.1636-2.2488.69816-.9687 1.5905-1.8292 2.4389-2.2211l.0023.0051c.46089-.24789.94514-.48118 1.4226-.71115l.000831-.000394c1.4829-.71434 2.8836-1.3892 3.5989-2.437.35782-.52421.5421-1.1717.54769-1.9246.005-.67533-.13634-1.3005-.25589-1.7061zm-6.1902 7.8811c-.42779.37834-.84754.84959-1.2183 1.3641-.60952.8457-1.0635 1.776-1.2072 2.5524.40265.66808.76926.99923 1.117 1.0107l.0109.000306c.31939.0055.53366-.1987.63703-.60651.07726-.30465.10005-.72466.12651-1.211.04806-.88575.11028-2.027.534-3.1098zm-9.8698 3.8201-.0052-.01294c.15274-.23421.38726-.51245.69716-.75102.44231-.34047 1.0218-.58779 1.7161-.51573-.081162.20132-.17439.42403-.27422.64682-.34173.76257-.74827 1.55-1.1727 1.6074-.025143.0035-.050767.0049-.076043.0045-.33158-.0057-.62111-.32595-.88505-.97907zm8.5116-12.44-1.831-1.1799 3.0338 1.1051zm-5.1001.43696 2.9195.77612 1.286-.38891zm5.2032 1.512.63392-.44808-2.4288.35262zm-4.1497-.070882-1.0146.63305-2.7752-.30369zm3.1033 1.6785 1.0272-.53339-3.7897.32945zm-2.8133.56357-.72925 1.1156-3.5641.77936zm-4.4465.61844-2.7685 1.1233 3.4144-2.2829zm-1.5279 1.3777-.1293 1.1689-1.6117 1.8875z" style="clip-rule:evenodd;fill-rule:evenodd;fill:#ba68c8;stroke-width:.43728"/></svg>
