<svg version="1.1" viewBox="0 0 24 24" xmlns="http://www.w3.org/2000/svg"><path d="m12 15.385c.47397.71096 1.1088 1.295 1.862 1.6928l-1.862 1.862-1.862-1.862c.75327-.3978 1.3965-.9818 1.862-1.6928m4.2319-4.0626a1.6928 1.6928 0 0 0-1.6928 1.6928 1.6928 1.6928 0 0 0 1.6928 1.6928 1.6928 1.6928 0 0 0 1.6928-1.6928c0-.93948-.76174-1.6928-1.6928-1.6928m-8.4638 0a1.6928 1.6928 0 0 0-1.6928 1.6928 1.6928 1.6928 0 0 0 1.6928 1.6928 1.6928 1.6928 0 0 0 1.6928-1.6928c0-.93948-.76174-1.6928-1.6928-1.6928m8.4638-2.1159a3.3855 3.3855 0 0 1 3.3855 3.3855 3.3855 3.3855 0 0 1-3.3855 3.3855 3.3855 3.3855 0 0 1-3.3855-3.3855 3.3855 3.3855 0 0 1 3.3855-3.3855m-8.4638 0a3.3855 3.3855 0 0 1 3.3855 3.3855 3.3855 3.3855 0 0 1-3.3855 3.3855 3.3855 3.3855 0 0 1-3.3855-3.3855 3.3855 3.3855 0 0 1 3.3855-3.3855m-4.0287-6.5171c1.4896 3.1316.41472 5.4676-.584 7.7867-.3047.6771-.46551 1.3796-.46551 2.1159a5.0783 5.0783 0 0 0 5.0783 5.0783c.17774-.0085.35548-.01693.53322-.04232l2.5053 2.5053 1.1934 1.1765 1.1934-1.1765 2.5053-2.5053c.17774.02539.35548.03385.53322.04232a5.0783 5.0783 0 0 0 5.0783-5.0783c0-.73635-.16081-1.4388-.46551-2.1159-.99872-2.3191-2.0736-4.6551-.584-7.7867-2.2344 1.7435-5.4168 3.1231-8.2606 3.1316-2.8438-.00846-6.0262-1.3881-8.2606-3.1316z" style="fill:#ef5350;stroke-width:.84638"/></svg>
