<svg version="1.1" viewBox="0 0 24 24" xmlns="http://www.w3.org/2000/svg"><path d="m5.13 10.71h3.74l-2.65-2.65c-1.01 0-1.83-.82-1.83-1.84a1.83 1.83 0 0 1 1.83-1.83c1.02 0 1.84.82 1.84 1.83l2.65 2.65v-3.74c-.71-.72-.71-1.88 0-2.59.71-.72 1.87-.72 2.58 0 .71.71.71 1.87 0 2.59v3.74l2.66-2.65c0-1.01.81-1.83 1.83-1.83 1.01 0 1.83.82 1.83 1.83 0 1.02-.82 1.84-1.83 1.84l-2.65 2.65h3.74c.72-.71 1.88-.71 2.59 0 .72.71.72 1.87 0 2.58-.71.71-1.87.71-2.59 0h-3.74l2.65 2.66c1.01 0 1.83.81 1.83 1.83a1.83 1.83 0 0 1-1.83 1.83c-1.02 0-1.83-.82-1.83-1.83l-2.66-2.65v3.74c.71.72.71 1.88 0 2.59-.71.72-1.87.72-2.58 0-.71-.71-.71-1.87 0-2.59v-3.74l-2.65 2.65c0 1.01-.82 1.83-1.84 1.83-1.01 0-1.83-.82-1.83-1.83 0-1.02.82-1.83 1.83-1.83l2.65-2.66h-3.74c-.72.71-1.88.71-2.59 0-.72-.71-.72-1.87 0-2.58.71-.71 1.87-.71 2.59 0z" style="fill:#ffb300"/></svg>
