<?xml version="1.0" encoding="utf-8"?>
<!-- Generator: Adobe Illustrator 19.1.0, SVG Export Plug-In . SVG Version: 6.00 Build 0)  -->
<svg version="1.1" id="Layer_1" xmlns="http://www.w3.org/2000/svg" xmlns:xlink="http://www.w3.org/1999/xlink" x="0px" y="0px"
	 width="16px" height="16px" viewBox="0 0 16 16" style="enable-background:new 0 0 16 16;" xml:space="preserve">
<rect x="5" y="5" width="1" height="8"/>
<path d="M10,2V1c0-0.141-0.026-0.271-0.078-0.391C9.87,0.49,9.798,0.384,9.707,0.293C9.617,0.202,9.511,0.13,9.391,0.078
	C9.271,0.026,9.141,0,9,0H6C5.859,0,5.729,0.026,5.609,0.078C5.489,0.13,5.384,0.202,5.293,0.293C5.202,0.384,5.13,0.49,5.078,0.609
	C5.026,0.729,5,0.859,5,1v1H1v1h1v11.5c0,0.209,0.039,0.404,0.117,0.586c0.078,0.183,0.185,0.341,0.32,0.477
	c0.135,0.136,0.294,0.242,0.477,0.32C3.096,15.961,3.292,16,3.5,16h8c0.208,0,0.403-0.039,0.586-0.117s0.341-0.185,0.477-0.32
	s0.242-0.294,0.32-0.477C12.961,14.904,13,14.709,13,14.5V3h1V2H10z M6,1h3v1H6V1z M12,14.5c0,0.136-0.05,0.253-0.148,0.352
	C11.753,14.951,11.636,15,11.5,15h-8c-0.136,0-0.253-0.049-0.352-0.148C3.049,14.753,3,14.636,3,14.5V3h9V14.5z"/>
<rect x="7" y="5" width="1" height="8"/>
<rect x="9" y="5" width="1" height="8"/>
</svg>
