<svg fill="white" id="Layer_1" data-name="Layer 1" xmlns="http://www.w3.org/2000/svg" viewBox="0 0 24 24"><title>recent_project</title><path d="M19.15,11.29V0.19H0V19.34H11.61A6.34,6.34,0,1,0,19.15,11.29Zm-6-9.9H18v1.2H13.17V1.39Zm0,2.39H18v7.34c-0.1,0-.2,0-0.31,0a6.33,6.33,0,0,0-4.48,1.85V3.79Zm-6-2.39H12v1.2H7.18V1.39ZM6,18.15H1.2V3.79H6V18.15ZM1.2,2.59V1.39H6v1.2m5.31,14.86a6.25,6.25,0,0,0,.07.7H7.18V3.79H12V14.65A6.29,6.29,0,0,0,11.29,17.45Zm6.36,5.16a5.16,5.16,0,0,1,0-10.33c0.11,0,.2,0,0.31,0A5.15,5.15,0,0,1,17.64,22.61Z"/><polygon points="18.25 17.82 18.25 13.88 17.95 13.88 17.04 13.88 17.04 17.82 17.04 18.15 17.04 19.02 18.25 19.02 19.15 19.02 20.46 19.02 20.46 17.82 19.15 17.82 18.25 17.82"/></svg>