<?xml version="1.0" encoding="utf-8"?>
<!-- Generator: Adobe Illustrator 19.1.0, SVG Export Plug-In . SVG Version: 6.00 Build 0)  -->
<svg version="1.1" id="Layer_1" xmlns="http://www.w3.org/2000/svg" xmlns:xlink="http://www.w3.org/1999/xlink" x="0px" y="0px"
	 width="16px" height="16px" viewBox="0 0 16 16" enable-background="new 0 0 16 16" xml:space="preserve">
<path d="M10,2.5c0.551,0,1,0.449,1,1s-0.449,1-1,1s-1-0.449-1-1S9.449,2.5,10,2.5 M10,1.5c-1.105,0-2,0.895-2,2s0.895,2,2,2
	s2-0.895,2-2S11.105,1.5,10,1.5L10,1.5z"/>
<path d="M12,12.5c0.551,0,1,0.449,1,1s-0.449,1-1,1s-1-0.449-1-1S11.449,12.5,12,12.5 M12,11.5c-1.105,0-2,0.895-2,2s0.895,2,2,2
	s2-0.895,2-2S13.105,11.5,12,11.5L12,11.5z"/>
<path d="M4,7.5c0.551,0,1,0.449,1,1s-0.449,1-1,1s-1-0.449-1-1S3.449,7.5,4,7.5 M4,6.5c-1.105,0-2,0.895-2,2s0.895,2,2,2
	s2-0.895,2-2S5.105,6.5,4,6.5L4,6.5z"/>
<rect y="3" width="8" height="1"/>
<rect x="12" y="3" width="4" height="1"/>
<rect y="8" width="2" height="1"/>
<rect x="6" y="8" width="10" height="1"/>
<rect x="14" y="13" width="2" height="1"/>
<rect x="0" y="13" width="10" height="1"/>
</svg>
