<?xml version="1.0" encoding="utf-8"?>
<!-- Generator: Adobe Illustrator 19.2.1, SVG Export Plug-In . SVG Version: 6.00 Build 0)  -->
<svg version="1.1" id="Layer_1" xmlns="http://www.w3.org/2000/svg" xmlns:xlink="http://www.w3.org/1999/xlink" x="0px" y="0px"
	 width="816.7px" height="816.7px" viewBox="0 0 816.7 816.7" enable-background="new 0 0 816.7 816.7" xml:space="preserve">
<path fill="#BBBDBF" d="M370.2,563.5c-5,0-9.1-4.1-9.1-9.1c0-5,4.1-9.1,9.1-9.1s9.1,4.1,9.1,9.1
	C379.3,559.4,375.2,563.5,370.2,563.5z M370.2,548.3c-3.3,0-6.1,2.7-6.1,6.1c0,3.3,2.7,6.1,6.1,6.1s6.1-2.7,6.1-6.1
	C376.3,551.1,373.6,548.3,370.2,548.3z"/>
<path fill="#BBBDBF" d="M427.8,563.5c-5,0-9.1-4.1-9.1-9.1c0-5,4.1-9.1,9.1-9.1s9.1,4.1,9.1,9.1
	C436.9,559.4,432.8,563.5,427.8,563.5z M427.8,548.3c-3.3,0-6.1,2.7-6.1,6.1c0,3.3,2.7,6.1,6.1,6.1s6.1-2.7,6.1-6.1
	C433.9,551.1,431.2,548.3,427.8,548.3z"/>
<rect x="256.9" y="497.4" transform="matrix(0.329 -0.9443 0.9443 0.329 -304.4099 583.5039)" fill="#BBBDBF" width="3" height="17.1"/>
<rect x="537.1" y="709.3" transform="matrix(0.3291 -0.9443 0.9443 0.3291 -316.5257 990.2365)" fill="#BBBDBF" width="3" height="17.1"/>
<path fill="#BBBDBF" d="M564.1,656.4c-1-5.8-4.1-10.8-8.3-13.4c-2.5-1.6-5.2-2.1-7.7-1.5c-4-12-10.9-28.3-24.9-38.9v-2.9
	c0-4.2-3.4-7.7-7.7-7.7h-24.3v-18.1h-32.2c-0.1-1.7-0.2-3.4-0.4-5c6.3-0.3,11.9-5.7,11.9-11.6c0-6.9-5.7-12.5-12.5-12.6l0,0
	c-2.3-0.1-4.6,0.5-6.6,1.7c-2.4-4.3-5.3-8.3-8.7-12l-2.2,2c9.5,10.2,14.9,23.4,15.5,37.5H342.4c0.6-14.1,6-27.3,15.5-37.5l-2.2-2
	c-3.3,3.6-6.2,7.5-8.5,11.7c-1.8-0.9-3.8-1.4-5.8-1.3l0,0c0,0-0.1,0-0.1,0c0,0,0,0,0,0l0,0c-6.8,0.2-12.4,5.8-12.4,12.6
	c0,5.6,5.1,10.7,11,11.5c-0.2,1.7-0.3,3.4-0.4,5.1h-32.2V592h-23.4c-3.9,0-7.1,3-7.6,6.7c-3.7-6-6.4-12.2-9.5-21.5
	c5.6-2.4,8.8-9.3,7.6-16.5c-2.4-14.4-2.3-21.8,0.7-36.1c1.5-7.1-1.4-13.9-6.7-16.7c5-14.2,9.1-21.2,19.3-33l-2.3-1.9
	c-3.8,4.4-6.7,8.1-9.2,11.8l-11.8-7.3c3.1-4.6,6.8-9.4,11.5-14.9l-2.3-1.9c-12.7,14.9-18.6,24.6-24.3,40.7c-2.2-0.3-4.5,0.1-6.7,1.4
	c-4.3,2.5-7.7,7.4-8.9,13.1c-3.6,17.2-3.9,34.6-1,51.9c1,5.8,4.1,10.8,8.3,13.4c1.8,1.1,3.8,1.7,5.7,1.7c0.4,0,0.7,0,1.1-0.1
	c5.3,16,15.7,37.3,28.4,47v11.5c0,2,0.8,4,2.3,5.4c1.4,1.4,3.4,2.2,5.4,2.2c0,0,0,0,0,0h23.3v18.7h41.2v14.9h-7.6
	c-6.9,0.1-12.5,5.7-12.5,12.6v17.1c0,6.4,4.9,11.7,11.1,12.5v0.1h1.5h8.1v13.1h3v-13.1h17.2v11.5h3v-11.5h53.7v11.5h3v-11.5h17.2
	v13.1h3v-13.1h8.4c6.9-0.1,12.5-5.7,12.5-12.6v-17.2c0-6.9-5.7-12.5-12.6-12.6h-7.5v-14.9h41.2V649h24.3c0,0,0,0,0,0
	c2,0,4-0.8,5.4-2.2c1.5-1.4,2.3-3.4,2.3-5.5v-7.7c3,4.4,3.5,5.9,6,13.9c-5,2.7-7.8,9.2-6.7,16c2.4,14.4,2.3,21.8-0.7,36.1
	c-1.5,7.1,1.4,14,6.7,16.7c-0.5,1.4-0.9,2.6-1.3,3.7c-1.5,4.3-2.3,6.9-3.6,9.4c-2.8-0.9-5.9-1.4-9-1.3c-7.6,0.1-14.8,3.2-20.2,8.6
	c-5,5-7.6,11.6-7.6,19.6v1.5h15.5l0.2-1.2c0.7-3.3,1.3-6.7,3.2-8.5c4.9-4.9,12.6-5.3,17.1-0.7c0.1,0.1,0.3,0.3,0.4,0.4
	c4.7,4.9,4.5,12.7-0.4,17.4c-1.9,1.9-5.8,3.1-8.2,3.1h-1.5l-0.1,15.6l1.3,0.1c0.7,0.1,1.4,0.1,2.1,0.1c6.2,0,12.8-2.8,17.6-7.7
	l0.2-0.2c5.4-5.4,8.3-12.6,8.3-20.2c0-4.9-1.3-9.7-3.6-13.9c3.2-5.3,5.2-10.3,8.4-19.3c0.4,0.1,0.9,0.1,1.4,0.1
	c1.8,0,3.6-0.5,5.4-1.5c4.3-2.5,7.7-7.4,8.9-13.1C566.7,691.2,567.1,673.7,564.1,656.4z M457.8,547.6l0-1.5L457.8,547.6
	c5.3,0.1,9.6,4.4,9.6,9.6c0,3.9-4.1,8.5-9.3,8.6c-1-5.9-2.8-11.6-5.4-16.9C454.2,548,456,547.6,457.8,547.6z M331.8,557.3
	c0-5.2,4.3-9.5,9.5-9.6c1.5,0,3.1,0.3,4.5,1c-2.7,5.4-4.5,11.2-5.6,17.2C335.4,565.2,331.8,560.9,331.8,557.3z M467,695.3v17.1
	c0,5.3-4.3,9.6-9.6,9.6h-8.4v0h-23.2v0h-53.7v0h-23.2v0h-6.6l-1.5,0c-5.3-0.1-9.5-4.4-9.6-9.6v-17.1c0-5.3,4.3-9.6,9.6-9.6h116.6
	C462.7,685.7,467,690.1,467,695.3z M532,646.4c-1.5-4.7-2.3-7.2-3.4-9.4l12.2-6c1.6,3.5,3,7.3,4.4,11.4L532,646.4z M263.9,578.1
	c1.7,5.1,3.3,9.6,5.4,14l-12.1,6c-2.7-5.8-4.9-11.5-6.4-15.9L263.9,578.1z M262.8,480l11.8,7.3c-3.5,5.7-6.1,11.5-9,19.6l-3-1
	l-10.3-3.6C255.3,493.6,258.5,486.8,262.8,480z M242.7,578.7c-3.5-2.1-6.1-6.5-7-11.4c-2.9-16.9-2.5-34,1-50.8
	c1-4.9,3.9-9.1,7.4-11.1c1.3-0.7,2.6-1.1,3.9-1.1c0.6,0,1.3,0.1,1.8,0.3l12.6,4.4l3.5,1.2c4.7,1.7,7.4,7.7,6.1,13.8
	c-3.1,14.7-3.2,22.4-0.7,37.2l0,0c1,6.1-1.9,12.1-6.7,13.5l-16.3,5C246.6,580.3,244.6,579.9,242.7,578.7z M258.5,600.8l12.1-6
	c1.6,3.1,3.4,6.1,5.6,9.3v22C269.2,619.9,263.1,610.2,258.5,600.8z M283.9,646C283.9,646,283.8,646,283.9,646
	c-1.3,0-2.4-0.5-3.3-1.4c-0.9-0.9-1.4-2-1.4-3.3v-41.6c0-2.6,2.1-4.7,4.7-4.7h23.3v51H283.9z M446.9,682.3h-95.5v-14.5h95.5V682.3z
	 M488.2,664.7h-178v-87.9h178V664.7z M520.2,641.4c0,1.2-0.5,2.4-1.4,3.3c-0.9,0.9-2,1.4-3.3,1.4c0,0,0,0,0,0h-24.3v-51h24.4
	c2.6,0,4.7,2.1,4.6,4.7V641.4z M523.2,606.4c6.5,5.3,11.8,12.5,16.4,21.8l-12.3,6.1c-1-1.6-2.2-3.4-4-6V606.4z M532.3,774.2
	l-0.2,0.2c-4.4,4.4-10.5,6.9-16,6.8l0.1-10c3-0.4,6.7-1.8,8.8-3.9c6.1-5.8,6.3-15.5,0.5-21.6c-0.2-0.2-0.3-0.4-0.5-0.5
	c-5.7-5.7-15.3-5.3-21.4,0.8c-2.2,2.2-3.1,5.5-3.7,8.8h-10.1c0.3-6.5,2.5-11.8,6.7-16c4.9-4.9,11.3-7.6,18.1-7.7
	c6.7-0.1,13,2.4,17.5,6.9C542.2,747.9,542.2,764.2,532.3,774.2z M534.3,735.9c-2.3-2.3-4.9-4.1-7.9-5.4c1.3-2.6,2.3-5.4,3.7-9.5
	c0.4-1.1,0.8-2.3,1.2-3.6l13.3,4.6c-2.9,8.3-4.7,12.8-7.3,17.4C536.4,738.1,535.4,737,534.3,735.9z M560.2,707.7
	c-1,4.9-3.9,9.1-7.4,11.1c-1.4,0.8-2.9,1.2-4.2,1.1l0.1-0.2l-19-6.6l-0.1,0.3c-3.9-2.2-6-7.7-4.8-13.2v0c3.1-14.7,3.2-22.4,0.7-37.2
	c-1-6.1,1.9-12.1,6.7-13.5l16.3-5c0.5-0.2,1.1-0.2,1.6-0.2c1.3,0,2.7,0.4,4.1,1.3c3.5,2.1,6.1,6.5,7,11.4
	C564,673.8,563.7,690.9,560.2,707.7z"/>
<g>
	<path fill="#BBBDBF" d="M373.7,736.4c-6-1.3-12.8,2.8-15.1,4.3c-12.1-7.4-19.8,1.5-19.9,1.6l-0.4,0.5l4.9,44.8
		c-3.6,7.3-12,10.9-13.5,11.5l-12.5-0.5c-1.2-0.4-2.4-0.3-3.6,0.3c-3.4,1.9-4.7,8.1-4.8,8.8l-0.2,1l0.8,0.6c6,4.2,20.9,7.1,21.6,7.2
		l0.2,0c0.4,0,0.8,0,1.1,0c14.3,0,25-7.8,27.6-9.8l1.1,0.2l3.9,8.1h16v-72.8l-0.2-0.3C378.9,738.9,376.6,737,373.7,736.4z
		 M341.4,743.9c1.6-1.5,7.4-6,16.4-0.1l0.9,0.6l0.8-0.6c0.1-0.1,7.7-5.7,13.6-4.4c2,0.4,3.5,1.6,4.7,3.6v39.7
		c-3.8-1-7.3-0.8-10.2,0.5c-2.4,1.2-4,2.9-4.9,4.4c-5.5-6.7-13.6-6.3-17.1-5.7L341.4,743.9z M358.9,803.5l-0.5,0.5
		c-0.1,0.1-11.7,10-27.1,9.6c-1.3-0.3-13.7-2.7-19.4-6.1c0.5-2,1.7-5,3.1-5.8c0.4-0.2,0.8-0.2,1.3,0l0.2,0.1l13.6,0.5l0.3-0.1
		c0.5-0.2,11.4-4.1,15.7-13.6l0.2-0.4l-0.4-3.3c2.9-0.5,11.1-1.2,15.7,6.4l1.7,2.7l1-3c0,0,1.2-3.4,4.6-5c2.4-1.2,5.4-1.2,8.9-0.1
		v18.3l-15.7,0L358.9,803.5z M366.6,811.9l-2.3-4.9l13.5,0v4.9H366.6z"/>
	
		<rect x="350.6" y="751.1" transform="matrix(0.9937 -0.1123 0.1123 0.9937 -83.4922 44.3725)" fill="#BBBDBF" width="3" height="24.1"/>
	
		<rect x="367.7" y="750.4" transform="matrix(0.9998 -1.900546e-002 1.900546e-002 0.9998 -14.4261 7.1554)" fill="#BBBDBF" width="3" height="24.4"/>
	
		<rect x="358.8" y="755.5" transform="matrix(0.9997 -2.410932e-002 2.410932e-002 0.9997 -18.2426 8.9069)" fill="#BBBDBF" width="3" height="10.9"/>
	<path fill="#BBBDBF" d="M489.8,807.8c-0.1-0.7-1.4-6.9-4.8-8.8c-1.1-0.6-2.3-0.7-3.6-0.3l-12.5,0.5c-1.6-0.6-10-4.2-13.5-11.5
		l4.9-44.8l-0.4-0.5c-0.2-0.2-4.7-5.6-12.6-4.4c-2.4,0.4-4.8,1.3-7.3,2.8c-2.1-1.4-7.7-4.8-13.1-4.6c-3.9,0.1-7,2.1-8.9,5.7
		l-0.2,0.3v72.8h16l3.9-8.1l1.1-0.2c2.6,2,13.3,9.8,27.6,9.8c0.4,0,0.8,0,1.1,0l0.2,0c0.6-0.1,15.5-2.9,21.6-7.2l0.8-0.6
		L489.8,807.8z M427,739.1c5.6-0.2,12,4.6,12.1,4.6l0.8,0.6l0.9-0.6c2.4-1.6,4.7-2.5,7-2.9c5-0.7,8.3,1.9,9.4,2.9l-4.2,38
		c-3.4-0.6-11.6-1-17.1,5.7c-1-1.4-2.5-3.2-4.9-4.4c-2.9-1.4-6.3-1.6-10.2-0.5v-39.7C422.2,740.5,424.2,739.2,427,739.1z
		 M431.9,811.9h-11.1v-4.9l13.5,0L431.9,811.9z M467.2,813.5c-15.3,0.4-27-9.5-27.1-9.6l-0.5-0.5l-3.1,0.6l-15.7,0v-18.3
		c3.4-1.1,6.4-1,8.8,0.1c3.4,1.6,4.7,5,4.7,5l1,3l1.7-2.7c4.6-7.7,12.7-6.9,15.7-6.4l-0.4,3.3l0.2,0.4c4.3,9.5,15.2,13.4,15.7,13.6
		l0.3,0.1l13.6-0.5l0.2-0.1c0.5-0.2,0.9-0.2,1.3,0c1.4,0.8,2.5,3.6,3.1,5.8C480.9,810.8,468.5,813.2,467.2,813.5z"/>
	
		<rect x="434.4" y="761.7" transform="matrix(0.1126 -0.9936 0.9936 0.1126 -362.1425 1120.854)" fill="#BBBDBF" width="24.1" height="3"/>
	
		<rect x="417.1" y="761.1" transform="matrix(1.888299e-002 -0.9998 0.9998 1.888299e-002 -341.2586 1177.356)" fill="#BBBDBF" width="24.4" height="3"/>
	
		<rect x="432.8" y="759.5" transform="matrix(2.408939e-002 -0.9997 0.9997 2.408939e-002 -333.0853 1180.7981)" fill="#BBBDBF" width="10.9" height="3"/>
</g>
<g id="Database_16_39_">
	<path fill="#BBBDBF" d="M18,755.1c-10,0-18.2,3.4-18.2,7.6s8.1,7.6,18.2,7.6s18.2-3.4,18.2-7.6S28.1,755.1,18,755.1z M18,767.2
		c-8.4,0-15.2-2-15.2-4.5s6.8-4.5,15.2-4.5s15.2,2,15.2,4.5S26.4,767.2,18,767.2z"/>
	<rect x="-0.1" y="762.7" fill="#BBBDBF" width="3" height="27.3"/>
	<rect x="33.2" y="762.7" fill="#BBBDBF" width="3" height="27.3"/>
	<path fill="#BBBDBF" d="M18,794.5c-8.4,0-15.2-2-15.2-4.5h-3c0,4.2,8.1,7.6,18.2,7.6s18.2-3.4,18.2-7.6h-3
		C33.2,792.5,26.4,794.5,18,794.5z"/>
	<path fill="#BBBDBF" d="M18,776.3c-8.4,0-15.2-2-15.2-4.5h-3c0,4.2,8.1,7.6,18.2,7.6s18.2-3.4,18.2-7.6h-3
		C33.2,774.3,26.4,776.3,18,776.3z"/>
	<path fill="#BBBDBF" d="M18,785.4c-8.4,0-15.2-2-15.2-4.5h-3c0,4.2,8.1,7.6,18.2,7.6s18.2-3.4,18.2-7.6h-3
		C33.2,783.4,26.4,785.4,18,785.4z"/>
</g>
<g id="Database_16_38_">
	<path fill="#BBBDBF" d="M78.8,755.1c-10,0-18.2,3.4-18.2,7.6s8.1,7.6,18.2,7.6s18.2-3.4,18.2-7.6S88.9,755.1,78.8,755.1z
		 M78.8,767.2c-8.4,0-15.2-2-15.2-4.5s6.8-4.5,15.2-4.5s15.2,2,15.2,4.5S87.2,767.2,78.8,767.2z"/>
	<rect x="60.6" y="762.7" fill="#BBBDBF" width="3" height="27.3"/>
	<rect x="94" y="762.7" fill="#BBBDBF" width="3" height="27.3"/>
	<path fill="#BBBDBF" d="M78.8,794.5c-8.4,0-15.2-2-15.2-4.5h-3c0,4.2,8.1,7.6,18.2,7.6S97,794.2,97,790h-3
		C94,792.5,87.2,794.5,78.8,794.5z"/>
	<path fill="#BBBDBF" d="M78.8,776.3c-8.4,0-15.2-2-15.2-4.5h-3c0,4.2,8.1,7.6,18.2,7.6S97,776,97,771.8h-3
		C94,774.3,87.2,776.3,78.8,776.3z"/>
	<path fill="#BBBDBF" d="M78.8,785.4c-8.4,0-15.2-2-15.2-4.5h-3c0,4.2,8.1,7.6,18.2,7.6s18.2-3.4,18.2-7.6h-3
		C94,783.4,87.2,785.4,78.8,785.4z"/>
</g>
<g id="Database_16_37_">
	<path fill="#BBBDBF" d="M139.6,755.1c-10,0-18.2,3.4-18.2,7.6s8.1,7.6,18.2,7.6c10,0,18.2-3.4,18.2-7.6S149.6,755.1,139.6,755.1z
		 M139.6,767.2c-8.4,0-15.2-2-15.2-4.5s6.8-4.5,15.2-4.5c8.4,0,15.2,2,15.2,4.5S147.9,767.2,139.6,767.2z"/>
	<rect x="121.4" y="762.7" fill="#BBBDBF" width="3" height="27.3"/>
	<rect x="154.7" y="762.7" fill="#BBBDBF" width="3" height="27.3"/>
	<path fill="#BBBDBF" d="M139.6,794.5c-8.4,0-15.2-2-15.2-4.5h-3c0,4.2,8.1,7.6,18.2,7.6c10,0,18.2-3.4,18.2-7.6h-3
		C154.7,792.5,147.9,794.5,139.6,794.5z"/>
	<path fill="#BBBDBF" d="M139.6,776.3c-8.4,0-15.2-2-15.2-4.5h-3c0,4.2,8.1,7.6,18.2,7.6c10,0,18.2-3.4,18.2-7.6h-3
		C154.7,774.3,147.9,776.3,139.6,776.3z"/>
	<path fill="#BBBDBF" d="M139.6,785.4c-8.4,0-15.2-2-15.2-4.5h-3c0,4.2,8.1,7.6,18.2,7.6c10,0,18.2-3.4,18.2-7.6h-3
		C154.7,783.4,147.9,785.4,139.6,785.4z"/>
</g>
<g id="Database_16_36_">
	<path fill="#BBBDBF" d="M200.3,755.1c-10,0-18.2,3.4-18.2,7.6s8.1,7.6,18.2,7.6c10,0,18.2-3.4,18.2-7.6S210.4,755.1,200.3,755.1z
		 M200.3,767.2c-8.4,0-15.2-2-15.2-4.5s6.8-4.5,15.2-4.5c8.4,0,15.2,2,15.2,4.5S208.7,767.2,200.3,767.2z"/>
	<rect x="182.1" y="762.7" fill="#BBBDBF" width="3" height="27.3"/>
	<rect x="215.5" y="762.7" fill="#BBBDBF" width="3" height="27.3"/>
	<path fill="#BBBDBF" d="M200.3,794.5c-8.4,0-15.2-2-15.2-4.5h-3c0,4.2,8.1,7.6,18.2,7.6c10,0,18.2-3.4,18.2-7.6h-3
		C215.5,792.5,208.7,794.5,200.3,794.5z"/>
	<path fill="#BBBDBF" d="M200.3,776.3c-8.4,0-15.2-2-15.2-4.5h-3c0,4.2,8.1,7.6,18.2,7.6c10,0,18.2-3.4,18.2-7.6h-3
		C215.5,774.3,208.7,776.3,200.3,776.3z"/>
	<path fill="#BBBDBF" d="M200.3,785.4c-8.4,0-15.2-2-15.2-4.5h-3c0,4.2,8.1,7.6,18.2,7.6c10,0,18.2-3.4,18.2-7.6h-3
		C215.5,783.4,208.7,785.4,200.3,785.4z"/>
</g>
<g id="Database_16_42_">
	<path fill="#BBBDBF" d="M78.8,692.2c-10,0-18.2,3.4-18.2,7.6s8.1,7.6,18.2,7.6s18.2-3.4,18.2-7.6S88.9,692.2,78.8,692.2z
		 M78.8,704.3c-8.4,0-15.2-2-15.2-4.5s6.8-4.5,15.2-4.5s15.2,2,15.2,4.5S87.2,704.3,78.8,704.3z"/>
	<rect x="60.6" y="699.7" fill="#BBBDBF" width="3" height="27.3"/>
	<rect x="94" y="699.7" fill="#BBBDBF" width="3" height="27.3"/>
	<path fill="#BBBDBF" d="M78.8,731.6c-8.4,0-15.2-2-15.2-4.5h-3c0,4.2,8.1,7.6,18.2,7.6S97,731.2,97,727h-3
		C94,729.5,87.2,731.6,78.8,731.6z"/>
	<path fill="#BBBDBF" d="M78.8,713.4c-8.4,0-15.2-2-15.2-4.5h-3c0,4.2,8.1,7.6,18.2,7.6S97,713,97,708.8h-3
		C94,711.4,87.2,713.4,78.8,713.4z"/>
	<path fill="#BBBDBF" d="M78.8,722.5c-8.4,0-15.2-2-15.2-4.5h-3c0,4.2,8.1,7.6,18.2,7.6s18.2-3.4,18.2-7.6h-3
		C94,720.5,87.2,722.5,78.8,722.5z"/>
</g>
<g id="Database_16_41_">
	<path fill="#BBBDBF" d="M139.6,692.2c-10,0-18.2,3.4-18.2,7.6s8.1,7.6,18.2,7.6c10,0,18.2-3.4,18.2-7.6S149.6,692.2,139.6,692.2z
		 M139.6,704.3c-8.4,0-15.2-2-15.2-4.5s6.8-4.5,15.2-4.5c8.4,0,15.2,2,15.2,4.5S147.9,704.3,139.6,704.3z"/>
	<rect x="121.4" y="699.7" fill="#BBBDBF" width="3" height="27.3"/>
	<rect x="154.7" y="699.7" fill="#BBBDBF" width="3" height="27.3"/>
	<path fill="#BBBDBF" d="M139.6,731.6c-8.4,0-15.2-2-15.2-4.5h-3c0,4.2,8.1,7.6,18.2,7.6c10,0,18.2-3.4,18.2-7.6h-3
		C154.7,729.5,147.9,731.6,139.6,731.6z"/>
	<path fill="#BBBDBF" d="M139.6,713.4c-8.4,0-15.2-2-15.2-4.5h-3c0,4.2,8.1,7.6,18.2,7.6c10,0,18.2-3.4,18.2-7.6h-3
		C154.7,711.4,147.9,713.4,139.6,713.4z"/>
	<path fill="#BBBDBF" d="M139.6,722.5c-8.4,0-15.2-2-15.2-4.5h-3c0,4.2,8.1,7.6,18.2,7.6c10,0,18.2-3.4,18.2-7.6h-3
		C154.7,720.5,147.9,722.5,139.6,722.5z"/>
</g>
<g id="Database_16_40_">
	<path fill="#BBBDBF" d="M200.3,692.2c-10,0-18.2,3.4-18.2,7.6s8.1,7.6,18.2,7.6c10,0,18.2-3.4,18.2-7.6S210.4,692.2,200.3,692.2z
		 M200.3,704.3c-8.4,0-15.2-2-15.2-4.5s6.8-4.5,15.2-4.5c8.4,0,15.2,2,15.2,4.5S208.7,704.3,200.3,704.3z"/>
	<rect x="182.1" y="699.7" fill="#BBBDBF" width="3" height="27.3"/>
	<rect x="215.5" y="699.7" fill="#BBBDBF" width="3" height="27.3"/>
	<path fill="#BBBDBF" d="M200.3,731.6c-8.4,0-15.2-2-15.2-4.5h-3c0,4.2,8.1,7.6,18.2,7.6c10,0,18.2-3.4,18.2-7.6h-3
		C215.5,729.5,208.7,731.6,200.3,731.6z"/>
	<path fill="#BBBDBF" d="M200.3,713.4c-8.4,0-15.2-2-15.2-4.5h-3c0,4.2,8.1,7.6,18.2,7.6c10,0,18.2-3.4,18.2-7.6h-3
		C215.5,711.4,208.7,713.4,200.3,713.4z"/>
	<path fill="#BBBDBF" d="M200.3,722.5c-8.4,0-15.2-2-15.2-4.5h-3c0,4.2,8.1,7.6,18.2,7.6c10,0,18.2-3.4,18.2-7.6h-3
		C215.5,720.5,208.7,722.5,200.3,722.5z"/>
</g>
<g id="Database_16_35_">
	<path fill="#BBBDBF" d="M261.1,755.1c-10,0-18.2,3.4-18.2,7.6s8.1,7.6,18.2,7.6c10,0,18.2-3.4,18.2-7.6S271.2,755.1,261.1,755.1z
		 M261.1,767.2c-8.4,0-15.2-2-15.2-4.5s6.8-4.5,15.2-4.5c8.4,0,15.2,2,15.2,4.5S269.5,767.2,261.1,767.2z"/>
	<rect x="242.9" y="762.7" fill="#BBBDBF" width="3" height="27.3"/>
	<rect x="276.3" y="762.7" fill="#BBBDBF" width="3" height="27.3"/>
	<path fill="#BBBDBF" d="M261.1,794.5c-8.4,0-15.2-2-15.2-4.5h-3c0,4.2,8.1,7.6,18.2,7.6c10,0,18.2-3.4,18.2-7.6h-3
		C276.3,792.5,269.5,794.5,261.1,794.5z"/>
	<path fill="#BBBDBF" d="M261.1,776.3c-8.4,0-15.2-2-15.2-4.5h-3c0,4.2,8.1,7.6,18.2,7.6c10,0,18.2-3.4,18.2-7.6h-3
		C276.3,774.3,269.5,776.3,261.1,776.3z"/>
	<path fill="#BBBDBF" d="M261.1,785.4c-8.4,0-15.2-2-15.2-4.5h-3c0,4.2,8.1,7.6,18.2,7.6c10,0,18.2-3.4,18.2-7.6h-3
		C276.3,783.4,269.5,785.4,261.1,785.4z"/>
</g>
<g>
	<path fill="#BBBDBF" d="M450.8,489.8c0-0.1-0.1-0.1-0.2-0.1c-1-0.8-4.1-3.3-6.5-1.8c-2.7,1.6-1.9,6.9-1.6,8.5
		c3.6,16-2.4,22.6-3.7,23.8c-5.1,0.8-6.1-2.2-6.2-2.6l-13.3-44.9c-1.8-5.6-6.7-5.9-9.1-5.3l-11,3.2l-11.1-3.2
		c-2.4-0.6-7.3-0.3-9.1,5.3l-13.3,44.9c-0.1,0.4-1.1,3.3-6.2,2.5c-1.3-1.2-7.3-7.8-3.7-23.8c0,0,0-0.1,0-0.1
		c0.2-1.6,0.7-6.9-2.1-8.4c-2.4-1.3-5.1,1.1-6,1.8c0,0-0.1,0.1-0.1,0.1c-0.1,0.2-14.6,16.2-3.6,35.1c0.6,1.4,6,12.3,28.7,16.6
		c0.6,0.1,14.9,3.3,25.2,3.3c0.5,0,0.9,0,1.4,0c0.5,0,0.9,0,1.4,0c10.2,0,24.5-3.1,25.1-3.2c22.8-4.3,28.2-15.3,28.8-16.7
		C465.4,506,451,490,450.8,489.8z M429.9,518.8c-0.1,0-0.1,0-0.2,0.1c-3.5,1.6-8.8,3.2-14.4,4.2c0.6-1.3,1-2.6,1-4.1
		c0-2.4-1-4.6-2.7-6.5c4.8-0.8,9.4-1.9,13.3-3.3c0,0,0.1,0,0.1-0.1l2.7,9.2C429.8,518.5,429.8,518.7,429.9,518.8z M385.2,519.1
		c0-5,6.3-9.1,14.1-9.1c7.7,0,14.1,4.1,14.1,9.1c0,5-6.3,9.1-14.1,9.1C391.5,528.2,385.2,524.1,385.2,519.1z M381.9,473.6
		c1.3-4.2,5.1-3.4,5.4-3.3l11.5,3.4c0,0,0.1,0,0.1,0c0,0,0.1,0,0.1,0c0.1,0,0.1,0,0.2,0c0,0,0.1,0,0.1,0c0.1,0,0.1,0,0.2,0
		c0,0,0.1,0,0.1,0l0,0c0,0,0,0,0,0l11.4-3.3c0.4-0.1,4.1-0.9,5.5,3.3l9.7,32.8c-0.1,0-0.2,0-0.3,0.1c-4.4,1.6-9.6,2.8-15.1,3.5
		c-0.1,0-0.2,0-0.2,0.1c-3-1.9-6.9-3-11.3-3c-4.4,0-8.4,1.2-11.5,3.2c-0.1,0-0.2-0.1-0.4-0.1c-5.6-0.7-10.9-1.9-15.3-3.6
		L381.9,473.6z M371.2,509.3c4,1.5,8.6,2.6,13.5,3.4c-1.6,1.9-2.6,4-2.6,6.4c0,1.5,0.4,2.9,1.1,4.2c-5.7-1.1-11.1-2.7-14.8-4.4
		c0,0-0.1,0-0.1,0c0.1-0.1,0.1-0.3,0.1-0.4L371.2,509.3z M366.8,521.3c0.1,0.1,0.3,0.3,0.5,0.4c4.5,2.1,11.3,4,18.1,5.1
		c0.1,0,0.2,0,0.2,0c0.1,0,0.2,0,0.4-0.1c3.1,2.8,7.9,4.5,13.3,4.5c5.4,0,10.2-1.8,13.3-4.5c0.1,0,0.1,0,0.2,0
		c6.8-1.1,13.8-3,18.2-5c0.2-0.1,0.4-0.3,0.5-0.4c0.9,0.9,2.2,1.6,4,1.9c-6.9,5.7-21.1,9.5-36.6,9.5c-15.5,0-29.6-3.7-36.5-9.5
		C364.4,522.9,365.8,522.2,366.8,521.3z M357.9,522.8c0,0.1,0.1,0.2,0.2,0.3c6.4,7.7,22.5,12.6,40.9,12.6c18.3,0,34.6-5.1,40.9-12.6
		c0.2,0,0.4-0.1,0.6-0.3c0.4-0.3,9.5-7.4,5.1-27c-0.3-1.6-0.3-3.2-0.2-4.2c2.4,6.9,8.5,29.8-12.9,40.3c-0.9,0.3-14.3,5.5-32,5.7
		c0,0,0,0,0,0c-0.4,0-0.9,0-1.3,0c-0.4,0-0.8,0-1.2,0c-17.7-0.2-31.2-5.4-32.1-5.7c-21-10.3-15.5-32.6-13-39.9c0.2,1,0.2,2.4,0,3.9
		C348.4,515.3,357.4,522.4,357.9,522.8z M451.8,523.4c0,0.1-0.1,0.1-0.1,0.2c0,0.1-4.6,10.8-26.7,14.9c-0.2,0-16,3.5-25.9,3.2
		c0,0,0,0,0,0c0,0,0,0,0,0c0,0,0,0,0,0s0,0,0,0c0,0,0,0,0,0c0,0,0,0,0,0c-9.9,0.3-25.7-3.1-25.9-3.2c-22-4.2-26.6-14.8-26.6-14.9
		c0-0.1-0.1-0.1-0.1-0.2c-9.6-16.5,2-30.2,3.1-31.5c-2.7,8.8-7.1,31.9,14.9,42.6c0,0,0.1,0,0.1,0c0.6,0.2,14.4,5.7,33.2,6
		c0,0,0,0,0,0c0.1,0,0.1,0,0.2,0c0.3,0,0.7,0,1,0c0,0,0.1,0,0.1,0c0,0,0.1,0,0.1,0c0.3,0,0.7,0,1,0c0.1,0,0.1,0,0.2,0c0,0,0,0,0,0
		c18.8-0.2,32.6-5.7,33.2-6c0,0,0.1,0,0.1,0c22.1-10.8,17.5-34,14.9-42.7c0.1,0,0.1,0.1,0.1,0.1C449.8,493.2,461.5,507,451.8,523.4z
		"/>
	<path fill="#BBBDBF" d="M399.3,525.9c3.7,0,6.8-3,6.8-6.8c0-3.7-3-6.8-6.8-6.8c-3.7,0-6.8,3-6.8,6.8
		C392.6,522.8,395.6,525.9,399.3,525.9z M399.3,515.3c2.1,0,3.8,1.7,3.8,3.8c0,2.1-1.7,3.8-3.8,3.8c-2.1,0-3.8-1.7-3.8-3.8
		C395.6,517,397.2,515.3,399.3,515.3z"/>
</g>
<path fill="#BBBDBF" d="M416.4,639.6h-41.8c-6.5,0-11.8-5.3-11.8-11.8c0-6.5,5.3-11.8,11.9-11.8c0.8,0,1.5,0.1,2.2,0.2
	c1.1-5.4,5.8-9.3,11.4-9.4c2.4,0,4.8,0.7,6.8,2.1c1.6-4.6,5.9-7.8,10.9-7.8c0.1,0,0.2,0,0.2,0c6.4,0.1,11.6,5.4,11.6,11.8
	c0,1.1-0.2,2.1-0.5,3.1c6,0.5,10.7,5.6,10.7,11.7C428.2,634.3,422.9,639.6,416.4,639.6z M374.8,619C374.7,619,374.7,619,374.8,619
	c-4.9,0-8.9,3.9-8.9,8.8s3.9,8.8,8.8,8.8h41.8c4.8,0,8.8-3.9,8.8-8.8s-3.9-8.8-8.8-8.8h-3.6l1.1-2.2c0.6-1.2,0.9-2.6,1-3.9
	c0-4.7-3.9-8.7-8.7-8.8c-4.5-0.1-8.3,3.3-8.6,7.8l-0.3,3.5l-2.3-2.6c-1.6-1.9-4-2.9-6.5-2.9c-4.7,0-8.5,3.7-8.7,8.4l-0.1,2.1l-2-0.8
	C376.8,619.2,375.8,619,374.8,619z"/>
<path fill="none" d="M230.1,320.2c16.9,4.9,36.5,7.6,55,9.1c1.5,0,3,0.1,4.5,0.1c27.4,0.9,51.7,3.1,76,8.4
	c20.6,4.5,68.8,15.1,72.6,46.2c1,8.5-1.4,15.7-7.5,22.1c-19.3,20.1-69.7,26-109.7,27.4c1.4,2.1,2.5,4.2,3.3,6.4c0,0,0,0,0,0
	c39.4-1.6,90.6-8,111.1-29.3c7.4-7.7,10.5-16.9,9.2-27.4c-1.9-15.2-12.4-27.6-31.2-37c-14.4-7.2-30.9-11.3-46.5-14.8
	c-24.7-5.4-49.5-7.6-77.4-8.5v0.2V323c-1.2,0-2.4-0.1-3.6-0.1c-9.9-0.8-20-1.9-29.7-3.5c-14.8-0.5-29.2-1.7-42.6-5.1
	C218.7,316.6,224.2,318.5,230.1,320.2z"/>
<path fill="none" d="M287.1,443.1c-1.8,3.5-1.9,7.8,0,11.5c1.8,3.2,5,5.5,8.8,6.2c2.8,0.4,5.7-0.2,8.4-1.7c0.4-0.3,0.8-0.6,1.2-0.9
	c0.4-0.3,0.7-0.7,1.1-1.1c1.1-1.4,2-3.3,2.8-5.2c0.2-0.8,0.4-1.6,0.5-2.5c0.2-1.9-0.6-4-1.7-6.2c-2.9,0-5.9,0.1-8.9,0.1
	C295,443.2,290.9,443.2,287.1,443.1z"/>
<path fill="none" d="M276.2,440c6.7,0.2,14.6,0.4,23.1,0.4c2.5,0,5,0,7.5,0l-0.4-0.7l7.3-6c-12.9,0.3-24.9,0.1-34.8-0.1l0,0
	l-5.8-0.2c-12.5-0.5-20.5-1.1-20.6-1.1c-0.9-0.1-1.7,0.2-2.4,0.8c-0.7,0.6-1.1,1.3-1.1,2.2c-0.1,1.8,1.2,3.3,3,3.5
	c1.2,0.1,8,0.6,18.3,1l-0.1,0.1L276.2,440L276.2,440z"/>
<path fill="none" d="M301.9,424c-5.4-1.4-11.9-0.2-17.3,3.2l-0.2,0.1c-1.6,1-3,2.2-4.3,3.5c6,0.2,12.8,0.3,20.1,0.3L301.9,424z"/>
<path fill="none" d="M309.9,440.4c1.6,3,3.1,6.1,2.8,9.2c-0.1,0.9-0.2,1.7-0.4,2.5l0.1,0c-0.1,0.2-0.2,0.4-0.3,0.7
	c-0.7,2.2-1.8,4.2-3.3,5.9c-0.7,0.9-1.5,1.7-2.5,2.3c-0.2,0.1-0.4,0.2-0.5,0.3c-2.7,1.8-5.8,2.6-9,2.3c-0.2,0-0.5,0-0.7-0.1
	c-0.2,0-0.4-0.1-0.6-0.1c-4.1-0.5-7.8-2.7-10-6.2c-0.1-0.2-0.3-0.4-0.4-0.6c-0.1-0.2-0.3-0.5-0.4-0.7c-1.5-2.7-2.2-5.9-1.8-9.2
	l0.2,0c0.2-1.3,0.5-2.5,1-3.7h0.3c-3.9-0.1-7.5-0.2-10.9-0.3c-1,4.2-1.1,8.6,0.1,12.9c1,3.3,2.6,6.4,4.9,9.1c3.4,4.1,7.9,7,12.9,8.4
	c0.4,0.1,0.7,0.2,1.1,0.3c6,1.2,12.1,0.3,17.5-2.5c1.3-0.8,2.6-1.7,3.9-2.7c5.2-4.4,8.5-10.7,9.1-17.5c0.6-5.9-1.1-11.5-5.1-16.7
	L309.9,440.4z"/>
<path fill="none" d="M455.6,187.9c-2.6,2.2-5.3,4.3-8.2,6.2c-24.6,16.6-55.5,18.4-87.6,18.9c-36.5,0.6-67.1,2.3-97.8,9
	c-15.6,3.4-32.1,7.6-46.5,14.8c-18.8,9.4-29.3,21.8-31.2,37c-1.3,10.4,1.8,19.6,9.2,27.4c5,5.2,11.9,9.6,20,13.2
	c13.4,3.3,27.8,4.5,42.6,5.1c-24.5-4-46.6-10.9-57.9-22.7c-6.1-6.3-8.5-13.6-7.5-22.1c3.8-31.2,52-41.7,72.6-46.2
	c30.1-6.6,60.3-8.3,96.5-8.8c33.1-0.5,65-2.4,91.1-20c3.3-2.2,6.4-4.6,9.4-7.3C458.7,190.9,457.1,189.5,455.6,187.9z"/>
<path fill="#BBBDBF" d="M289.6,329.7v-0.2c-1.5,0-3-0.1-4.5-0.1C286.6,329.4,288.1,329.6,289.6,329.7z"/>
<path fill="none" d="M633.8,207c0-0.7,0.6-1.3,1.4-1.3H767c25.4,0,46-20.6,46-46v-32.5c0-25.4-20.6-46-46-46H493.7
	c-25.4,0-46,20.6-46,46v32.5c0,25.4,20.6,46,46,46h132.2c0.4,0,0.7,0.2,1,0.4c0.3,0.3,0.4,0.6,0.4,1c0,0.4,0,0.9,0,1.3h6.5
	C633.8,208,633.8,207.5,633.8,207z"/>
<g>
	<path fill="#BBBDBF" d="M767.7,86.9H494.4c-21.8,0-39.5,17.7-39.5,39.5V159c0,21.8,17.7,39.5,39.5,39.5h273.3
		c21.8,0,39.5-17.7,39.5-39.5v-32.5C807.2,104.6,789.5,86.9,767.7,86.9z M804.4,159c0,20.3-16.5,36.8-36.8,36.8H494.4
		c-20.3,0-36.8-16.5-36.8-36.8v-32.5c0-20.3,16.5-36.8,36.8-36.8h273.3c20.3,0,36.8,16.5,36.8,36.8V159z"/>
	<path fill="#BBBDBF" d="M767,78.3H493.7c-26.9,0-48.8,21.9-48.8,48.8v32.5c0,9.9,3,19.1,8,26.8c-2.3,1.9-4.6,3.7-7.2,5.4
		c-24,16.2-54.4,18-86,18.4c-36.7,0.6-67.5,2.3-98.3,9.1c-15.8,3.5-32.5,7.7-47.2,15c-19.7,9.8-30.7,23-32.7,39.2
		c-1.4,11.3,2,21.2,10,29.6c2.4,2.5,5.2,4.8,8.3,6.9c3.9,2.6,8.3,5,13.1,7c12.4,5.4,27.4,9.1,43,11.6c9.7,1.6,19.5,2.7,29.2,3.4
		c1.5,0,3,0.1,4.5,0.1c27.2,0.9,51.4,3,75.4,8.3c20,4.4,66.9,14.6,70.5,43.8c0.9,7.6-1.3,14.1-6.7,19.8
		c-18.9,19.8-69.9,25.4-109.8,26.6l-0.7-0.8l-1.1,0.9c-4.8,0.1-9.5,0.2-14,0.2l2-9l-1.2-0.4c-6.4-2.2-14.4-0.9-20.8,3.2l-0.2,0.1
		c-2.5,1.6-4.6,3.5-6.4,5.7c-14.4-0.5-23.6-1.2-23.8-1.2c-1.6-0.1-3.2,0.4-4.4,1.4c-1.2,1-2,2.5-2.1,4.1c-0.3,3.3,2.2,6.2,5.5,6.5
		c1.2,0.1,8.2,0.6,18.9,1.1c-0.2,1-0.4,1.9-0.5,2.9l-0.2,0l0,0.2c-0.3,3.6,0,7.2,1,10.6c0.7,2.8,1.9,5.5,3.5,8
		c3.7,5.7,9.4,9.8,16.2,11.5c1.6,0.4,3.2,0.7,4.9,0.9c0.8,0.1,1.7,0.1,2.5,0.1c4.6,0,9.2-1.2,13.3-3.6c0.7-0.4,1.4-0.8,2-1.2l0-0.1
		c0.8-0.5,1.5-1.1,2.3-1.7c5.8-4.9,9.4-11.8,10.1-19.4c0.3-2.8,0.1-5.5-0.6-8.2c39.8-1.7,91.3-8.3,112.3-30.2
		c8-8.4,11.4-18.3,10-29.6c-2-16.2-13-29.3-32.7-39.2c-14.7-7.3-31.3-11.5-47.2-15c-26-5.7-52-7.8-81.6-8.7
		c-34.3-2.6-70.4-9.4-85.7-25.3c-5.5-5.7-7.7-12.2-6.7-19.8c3.6-29.2,50.5-39.4,70.5-43.8c29.9-6.5,59.9-8.2,95.9-8.8
		c33.5-0.5,65.9-2.5,92.6-20.5c2.8-1.9,5.6-4,8.2-6.2c8.7,8,20.3,12.9,33,12.9h104.6h16.9h9.3h2.8h6.5h2.8h3.5h16.2H767
		c26.9,0,48.8-21.9,48.8-48.8v-32.5C815.8,100.2,793.9,78.3,767,78.3z M284.4,427.3l0.2-0.1c5.3-3.4,11.8-4.6,17.3-3.2l-1.6,7.1
		c-7.3,0-14.1-0.1-20.1-0.3C281.4,429.5,282.9,428.3,284.4,427.3z M270.2,439.9l0.1-0.1c-10.3-0.4-17.1-1-18.3-1
		c-1.8-0.1-3.1-1.7-3-3.5c0.1-0.9,0.5-1.6,1.1-2.2c0.7-0.6,1.5-0.8,2.4-0.8c0.1,0,8.1,0.6,20.6,1.1l5.8,0.2l0,0
		c9.9,0.3,21.8,0.4,34.8,0.1l-7.3,6l0.4,0.7c-2.5,0-5,0-7.5,0c-8.5,0-16.4-0.2-23.1-0.4l0,0L270.2,439.9z M308.2,443.1
		c1.1,2.2,1.9,4.3,1.7,6.2c-0.1,0.9-0.2,1.7-0.5,2.5c-0.8,1.9-1.7,3.8-2.8,5.2c-0.3,0.4-0.7,0.7-1.1,1.1c-0.4,0.3-0.8,0.6-1.2,0.9
		c-2.7,1.6-5.6,2.1-8.4,1.7c-3.8-0.6-7-3-8.8-6.2c-2-3.7-1.9-8,0-11.5c3.9,0.1,7.9,0.1,12.2,0.1
		C302.3,443.2,305.3,443.2,308.2,443.1z M322.9,450.6c-0.7,6.9-3.9,13.1-9.1,17.5c-1.2,1-2.5,1.9-3.9,2.7
		c-5.4,2.8-11.5,3.7-17.5,2.5c-0.4-0.1-0.7-0.2-1.1-0.3c-5-1.4-9.5-4.3-12.9-8.4c-2.3-2.7-3.9-5.8-4.9-9.1
		c-1.2-4.3-1.1-8.7-0.1-12.9c3.3,0.1,7,0.2,10.9,0.3H284c-0.5,1.2-0.8,2.4-1,3.7l-0.2,0c-0.4,3.3,0.3,6.5,1.8,9.2
		c0.1,0.2,0.3,0.5,0.4,0.7c0.1,0.2,0.3,0.4,0.4,0.6c2.3,3.5,6,5.7,10,6.2c0.2,0,0.4,0.1,0.6,0.1c0.2,0,0.5,0.1,0.7,0.1
		c3.2,0.3,6.3-0.5,9-2.3c0.2-0.1,0.4-0.2,0.5-0.3c0.9-0.6,1.7-1.4,2.5-2.3c1.5-1.7,2.6-3.7,3.3-5.9c0.1-0.2,0.2-0.4,0.3-0.7l-0.1,0
		c0.2-0.8,0.4-1.6,0.4-2.5c0.3-3.1-1.2-6.2-2.8-9.2l7.9-6.5C321.8,439.1,323.5,444.7,322.9,450.6z M451,199.5
		c-26.1,17.6-58,19.5-91.1,20c-36.1,0.5-66.4,2.3-96.5,8.8c-20.6,4.5-68.8,15.1-72.6,46.2c-1,8.5,1.4,15.7,7.5,22.1
		c11.3,11.8,33.5,18.8,57.9,22.7c9.7,1.6,19.8,2.7,29.7,3.5c1.2,0,2.4,0.1,3.6,0.1c27.9,0.9,52.6,3.1,77.4,8.5
		c15.6,3.4,32.1,7.6,46.5,14.8c18.8,9.4,29.3,21.8,31.2,37c1.3,10.4-1.8,19.6-9.2,27.4c-20.5,21.3-71.7,27.7-111.1,29.3c0,0,0,0,0,0
		c-0.8-2.2-1.9-4.3-3.3-6.4c40.1-1.4,90.4-7.3,109.7-27.4c6.1-6.3,8.5-13.6,7.5-22.1c-3.8-31.2-52-41.7-72.6-46.2
		c-24.2-5.3-48.6-7.4-76-8.4v0.2c-1.5-0.1-3-0.2-4.5-0.3c-18.6-1.5-38.2-4.2-55-9.1c-5.9-1.7-11.4-3.6-16.5-5.9
		c-8.1-3.6-15-7.9-20-13.2c-7.4-7.7-10.5-16.9-9.2-27.4c1.9-15.2,12.4-27.6,31.2-37c14.4-7.2,30.9-11.3,46.5-14.8
		c30.6-6.7,61.2-8.4,97.8-9c32.1-0.5,62.9-2.3,87.6-18.9c2.5-1.7,4.9-3.5,7.2-5.4c1.3,1.7,2.7,3.4,4.2,4.9
		C456.3,195.7,453.7,197.7,451,199.5z M813.1,159.7c0,25.4-20.6,46-46,46H640h-4.8h-9.3h-10.7H493.7c-25.4,0-46-20.6-46-46v-32.5
		c0-25.4,20.6-46,46-46H767c25.4,0,46,20.6,46,46V159.7z"/>
</g>
</svg>
