<?xml version="1.0" encoding="utf-8"?>
<!-- Generator: Adobe Illustrator 19.2.0, SVG Export Plug-In . SVG Version: 6.00 Build 0)  -->
<svg version="1.1" id="Layer_1" xmlns="http://www.w3.org/2000/svg" xmlns:xlink="http://www.w3.org/1999/xlink" x="0px" y="0px"
	 width="16px" height="16px" viewBox="0 0 16 16" enable-background="new 0 0 16 16" xml:space="preserve">
<g enable-background="new    ">
	<path d="M8,0c0.7,0,1.4,0.1,2.1,0.3c0.7,0.2,1.3,0.5,1.9,0.8s1.1,0.8,1.6,1.3s0.9,1,1.3,1.6s0.6,1.2,0.8,1.9S16,7.3,16,8
		s-0.1,1.4-0.3,2.1s-0.5,1.3-0.8,1.9s-0.8,1.1-1.3,1.6s-1,0.9-1.6,1.3s-1.2,0.6-1.9,0.8C9.4,15.9,8.7,16,8,16s-1.4-0.1-2.1-0.3
		c-0.7-0.2-1.3-0.5-1.9-0.8s-1.1-0.8-1.6-1.3s-0.9-1-1.3-1.6s-0.6-1.2-0.8-1.9S0,8.7,0,8c0-0.7,0.1-1.4,0.3-2.1S0.7,4.6,1.1,4
		s0.8-1.1,1.3-1.6s1-0.9,1.6-1.3s1.2-0.6,1.9-0.8S7.3,0,8,0z M8,15c0.6,0,1.3-0.1,1.9-0.3s1.2-0.4,1.7-0.7s1-0.7,1.4-1.1
		s0.8-0.9,1.1-1.4s0.5-1.1,0.7-1.7S15,8.6,15,8c0-0.6-0.1-1.3-0.3-1.9S14.3,5,14,4.5s-0.7-1-1.1-1.4S12,2.3,11.5,2s-1.1-0.5-1.7-0.7
		S8.6,1,8,1S6.7,1.1,6.1,1.3S5,1.7,4.5,2s-1,0.7-1.4,1.1S2.3,4,2,4.5S1.4,5.5,1.3,6.1S1,7.4,1,8s0.1,1.3,0.3,1.9S1.7,11,2,11.5
		s0.7,1,1.1,1.4S4,13.7,4.5,14s1.1,0.5,1.7,0.7S7.4,15,8,15z M5,7C4.9,7,4.7,7,4.6,6.9S4.4,6.8,4.3,6.7S4.1,6.5,4.1,6.4S4,6.1,4,6
		s0-0.3,0.1-0.4s0.1-0.2,0.2-0.3s0.2-0.2,0.3-0.2S4.9,5,5,5s0.3,0,0.4,0.1s0.2,0.1,0.3,0.2s0.2,0.2,0.2,0.3S6,5.9,6,6s0,0.3-0.1,0.4
		S5.8,6.6,5.7,6.7S5.5,6.9,5.4,6.9S5.1,7,5,7z M8,10c0.7,0,1.4,0.1,2,0.4s1.2,0.7,1.7,1.2L11,12.4c-0.4-0.4-0.8-0.8-1.3-1
		S8.6,11,8,11s-1.1,0.1-1.6,0.4s-1,0.6-1.3,1l-0.8-0.7c0.5-0.5,1-1,1.7-1.2S7.3,10,8,10z M11,5c0.1,0,0.3,0,0.4,0.1s0.2,0.1,0.3,0.2
		s0.2,0.2,0.2,0.3S12,5.9,12,6s0,0.3-0.1,0.4s-0.1,0.2-0.2,0.3s-0.2,0.2-0.3,0.2S11.1,7,11,7s-0.3,0-0.4-0.1s-0.2-0.1-0.3-0.2
		s-0.2-0.2-0.2-0.3S10,6.1,10,6s0-0.3,0.1-0.4s0.1-0.2,0.2-0.3s0.2-0.2,0.3-0.2S10.9,5,11,5z"/>
</g>
</svg>
