<?xml version="1.0" encoding="utf-8"?>
<!-- Generator: Adobe Illustrator 19.2.1, SVG Export Plug-In . SVG Version: 6.00 Build 0)  -->
<svg version="1.1" id="Layer_1" xmlns="http://www.w3.org/2000/svg" xmlns:xlink="http://www.w3.org/1999/xlink" x="0px" y="0px"
	 width="16px" height="16px" viewBox="0 0 16 16" style="enable-background:new 0 0 16 16;" xml:space="preserve">
<g>
	<path style="fill:#7CD300;" d="M7.5,0C3.3577,0,0,3.3579,0,7.5s3.3577,7.5,7.5,7.5s7.5-3.3579,7.5-7.5S11.6423,0,7.5,0z
		 M7.5,14.0624c-3.6246,0-6.5625-2.9381-6.5625-6.5625S3.8754,0.9375,7.5,0.9375S14.0624,3.8756,14.0624,7.5
		S11.1245,14.0624,7.5,14.0624z"/>
	<g>
		<path style="fill:#7CD300;" d="M2.0199,2.727C1.8658,3.0542,1.7304,3.3924,1.6235,3.7448l9.6315,9.6314
			c0.3526-0.1069,0.6909-0.242,1.0181-0.3964L2.0199,2.727z"/>
		<path style="fill:#7CD300;" d="M1.3128,4.8483c-0.1631,0.3183-0.309,0.646-0.4286,0.9857l8.6351,8.6351
			c0.3399-0.1196,0.6677-0.2652,0.986-0.4286L1.3128,4.8483z"/>
		<path style="fill:#7CD300;" d="M0.7825,7.1464c-0.181,0.3004-0.3479,0.6071-0.4929,0.9215l6.6424,6.6424
			c0.3145-0.145,0.6212-0.3116,0.9217-0.4929L0.7825,7.1464z"/>
		<path style="fill:#7CD300;" d="M3.6228,1.5018C3.3712,1.7211,3.1354,1.9571,2.9158,2.209l9.8754,9.8751
			c0.2516-0.2192,0.4874-0.4553,0.707-0.7072L3.6228,1.5018z"/>
		<path style="fill:#7CD300;" d="M5.6401,0.6903C5.307,0.8168,4.9849,0.968,4.6714,1.1361l9.1924,9.1923
			c0.168-0.3135,0.3195-0.6356,0.4459-0.9684L5.6401,0.6903z"/>
		<path style="fill:#7CD300;" d="M8.0546,0.2764C7.7454,0.4267,7.443,0.5977,7.1463,0.7826l7.0711,7.071
			c0.1848-0.2967,0.3559-0.5991,0.5062-0.9081L8.0546,0.2764z"/>
	</g>
</g>
</svg>
