<svg width="16" height="16" viewBox="0 0 16 16" fill="none" xmlns="http://www.w3.org/2000/svg">
<g clip-path="url(#clip0)">
<path fill-rule="evenodd" clip-rule="evenodd" d="M1.51087 2L1.01087 2.5V6.49648L1 6.50735V13.5021L1.5 14.0021H7.41695C7.27806 13.6846 7.1712 13.3499 7.10044 13.0021H2V11.4929H1.99963V7.49588H2.01087V7.00735H6.49626L6.84981 6.8609L7.70761 6.00311H13.9903V7.4118C14.3514 7.56865 14.6903 7.76688 15.0011 8.00049V3.49925L14.5011 2.99925H7.71349L6.86068 2.14645L6.50713 2H1.51087ZM14.0011 5.00311V3.99925H7.50638L7.15283 3.8528L6.30002 3H2.01087V6.00735H6.28915L7.14695 5.14956L7.5005 5.00311H14.0011Z" fill="#C5C5C5"/>
<path fill-rule="evenodd" clip-rule="evenodd" d="M9.77772 8.67412C10.4355 8.2346 11.2089 8 12 8C13.0605 8.0013 14.0771 8.42315 14.827 9.17301C15.5769 9.92287 15.9987 10.9395 16 12C16 12.7911 15.7654 13.5645 15.3259 14.2223C14.8864 14.8801 14.2616 15.3928 13.5307 15.6955C12.7998 15.9983 11.9956 16.0775 11.2196 15.9231C10.4437 15.7688 9.73098 15.3878 9.17157 14.8284C8.61216 14.269 8.2312 13.5563 8.07686 12.7804C7.92252 12.0044 8.00173 11.2002 8.30448 10.4693C8.60723 9.73836 9.11992 9.11365 9.77772 8.67412ZM11.9087 13.6637L14.295 10.4818L13.495 9.88184L11.4182 12.651L10.1165 11.6096L9.49179 12.3905L11.1963 13.7541L11.9087 13.6637Z" fill="#369432"/>
</g>
<defs>
<clipPath id="clip0">
<rect width="16" height="16" fill="white"/>
</clipPath>
</defs>
</svg>
