<svg version="1.1" viewBox="0 0 24 24" xmlns="http://www.w3.org/2000/svg"><path d="m19.389 18.237-6.7423 3.7406c-.4618.24014-.9236.24014-1.3854 0l-6.6499-3.7406 12.053-12.145.32326-.09236c.27708 0 .43409.12007.4618.36944l1.9396 11.868m-9.8363-11.961-4.2024 6.9732 1.7548-11.037c.027708-.24937.18472-.36944.4618-.36944.18472 0 .30479.055416.36944.2309l1.9857 3.6482-.36944.55416m4.1562 1.1637-8.8203 8.8573 6.6961-11.36c.09236-.18472.2309-.26784.41562-.26784s.30479.083124.36944.26784z" style="fill:#fbc02d;stroke-width:.9236"/></svg>
