<svg clip-rule="evenodd" stroke-linejoin="round" stroke-miterlimit="1.4142" version="1.1" viewBox="0 0 24 24" xml:space="preserve" xmlns="http://www.w3.org/2000/svg"><path d="m19 20h-15c-1.11 0-2-.9-2-2v-12c0-1.11.89-2 2-2h6l2 2h7c1.097 0 2 .903 2 2h-17v10l2.14-8h17.07l-2.28 8.5c-.23.87-1.01 1.5-1.93 1.5z" fill="#e57373" style="fill:#00897b"/><path d="m23.285 16.95h-1.2881v1.2881h-3.8642v-1.9321h1.2881v-1.2881h-1.2881v-3.2202a1.2881 1.2881 0 0 0-1.2881-1.2881h-5.1523v-1.2881h-1.2881v5.1523h1.2881v-1.2881h3.8642v1.9321h-1.2881v1.2881h1.2881v3.2202a1.2881 1.2881 0 0 0 1.2881 1.2881h5.1523v1.2881h1.2881" style="fill:#b2dfdb;stroke-width:.64403"/></svg>
