<svg clip-rule="evenodd" fill-rule="evenodd" stroke-linejoin="round" stroke-miterlimit="1.4142" version="1.1" viewBox="0 0 24 24" xml:space="preserve" 
    xmlns="http://www.w3.org/2000/svg" 
    xmlns:xlink="http://www.w3.org/1999/xlink">
    <path id="folder" d="m10 4h-6c-1.11 0-2 .89-2 2v12c0 1.097.903 2 2 2h16c1.097 0 2-.903 2-2v-10c0-1.11-.9-2-2-2h-8l-2-2z" fill="#e57373" fill-rule="nonzero" style="fill:#ec407a"/>

    <path id="circle1" d="m12.535 11.049a4.868 4.868 0 0 0-4.8281 4.8672 4.868 4.868 0 0 0 4.8672 4.8691 4.868 4.868 0 0 0 1.4805-0.23047 4.868 4.868 0 0 1-1.9551-1.1914 3.4793 3.4793 0 0 1-3.0039-3.4473 3.4793 3.4793 0 0 1 3-3.4434 4.868 4.868 0 0 1 1.959-1.1934 4.868 4.868 0 0 0-1.4805-0.23047 4.868 4.868 0 0 0-0.03906 0z" style="fill:#f8bbd0;paint-order:fill markers stroke;stroke-linecap:square;stroke-width:2.0492"/>
    <path id="circle2" d="m15.495 11.049a4.868 4.868 0 0 0-4.8281 4.8672 4.868 4.868 0 0 0 4.8672 4.8691 4.868 4.868 0 0 0 4.8691-4.8691 4.868 4.868 0 0 0-4.8691-4.8672 4.868 4.868 0 0 0-0.03906 0zm0.03906 1.3887a3.4793 3.4793 0 0 1 3.4805 3.4785 3.4793 3.4793 0 0 1-3.4805 3.4805 3.4793 3.4793 0 0 1-3.4785-3.4805 3.4793 3.4793 0 0 1 3.4785-3.4785z" style="fill:#f8bbd0;paint-order:fill markers stroke;stroke-linecap:square;stroke-width:2.0492"/>
    <path id="circle3" d="m18.455 11.049a4.868 4.868 0 0 0-4.8281 4.8672 4.868 4.868 0 0 0 4.8672 4.8691 4.868 4.868 0 0 0 4.8691-4.8691 4.868 4.868 0 0 0-4.8691-4.8672 4.868 4.868 0 0 0-0.03906 0zm0.03906 1.3887a3.4793 3.4793 0 0 1 3.4805 3.4785 3.4793 3.4793 0 0 1-3.4805 3.4805 3.4793 3.4793 0 0 1-3.4785-3.4805 3.4793 3.4793 0 0 1 3.4785-3.4785z" style="fill:#f8bbd0;paint-order:fill markers stroke;stroke-linecap:square;stroke-width:2.0492"/>

    <animate xlink:href="#circle2" attributeName="d" attributeType="XML" dur="20s" begin="3s;op.end+3s" values="m15.495 11.049a4.868 4.868 0 0 0-4.8281 4.8672 4.868 4.868 0 0 0 4.8672 4.8691 4.868 4.868 0 0 0 4.8691-4.8691 4.868 4.868 0 0 0-4.8691-4.8672 4.868 4.868 0 0 0-0.03906 0zm0.03906 1.3887a3.4793 3.4793 0 0 1 3.4805 3.4785 3.4793 3.4793 0 0 1-3.4805 3.4805 3.4793 3.4793 0 0 1-3.4785-3.4805 3.4793 3.4793 0 0 1 3.4785-3.4785z; 
            m12.535 11.049a4.868 4.868 0 0 0-4.8281 4.8672 4.868 4.868 0 0 0 4.8672 4.8691 4.868 4.868 0 0 0 4.8691-4.8691 4.868 4.868 0 0 0-4.8691-4.8672 4.868 4.868 0 0 0-0.03906 0zm0.03906 1.3887a3.4793 3.4793 0 0 1 3.4805 3.4785 3.4793 3.4793 0 0 1-3.4805 3.4805 3.4793 3.4793 0 0 1-3.4785-3.4805 3.4793 3.4793 0 0 1 3.4785-3.4785z; 
            m12.535 11.049a4.868 4.868 0 0 0-4.8281 4.8672 4.868 4.868 0 0 0 4.8672 4.8691 4.868 4.868 0 0 0 4.8691-4.8691 4.868 4.868 0 0 0-4.8691-4.8672 4.868 4.868 0 0 0-0.03906 0zm0.03906 1.3887a3.4793 3.4793 0 0 1 3.4805 3.4785 3.4793 3.4793 0 0 1-3.4805 3.4805 3.4793 3.4793 0 0 1-3.4785-3.4805 3.4793 3.4793 0 0 1 3.4785-3.4785z; 
            m15.495 11.049a4.868 4.868 0 0 0-4.8281 4.8672 4.868 4.868 0 0 0 4.8672 4.8691 4.868 4.868 0 0 0 4.8691-4.8691 4.868 4.868 0 0 0-4.8691-4.8672 4.868 4.868 0 0 0-0.03906 0zm0.03906 1.3887a3.4793 3.4793 0 0 1 3.4805 3.4785 3.4793 3.4793 0 0 1-3.4805 3.4805 3.4793 3.4793 0 0 1-3.4785-3.4805 3.4793 3.4793 0 0 1 3.4785-3.4785z; 
            m15.495 11.049a4.868 4.868 0 0 0-4.8281 4.8672 4.868 4.868 0 0 0 4.8672 4.8691 4.868 4.868 0 0 0 4.8691-4.8691 4.868 4.868 0 0 0-4.8691-4.8672 4.868 4.868 0 0 0-0.03906 0zm0.03906 1.3887a3.4793 3.4793 0 0 1 3.4805 3.4785 3.4793 3.4793 0 0 1-3.4805 3.4805 3.4793 3.4793 0 0 1-3.4785-3.4805 3.4793 3.4793 0 0 1 3.4785-3.4785z" keyTimes="0; 0.05; 0.1; 0.15; 1" repeatCount="indefinite" />

    <animate xlink:href="#circle3" attributeName="d" attributeType="XML" dur="20s" begin="3s;op.end+3s" values="m18.455 11.049a4.868 4.868 0 0 0-4.8281 4.8672 4.868 4.868 0 0 0 4.8672 4.8691 4.868 4.868 0 0 0 4.8691-4.8691 4.868 4.868 0 0 0-4.8691-4.8672 4.868 4.868 0 0 0-0.03906 0zm0.03906 1.3887a3.4793 3.4793 0 0 1 3.4805 3.4785 3.4793 3.4793 0 0 1-3.4805 3.4805 3.4793 3.4793 0 0 1-3.4785-3.4805 3.4793 3.4793 0 0 1 3.4785-3.4785z; 
            m12.535 11.049a4.868 4.868 0 0 0-4.8281 4.8672 4.868 4.868 0 0 0 4.8672 4.8691 4.868 4.868 0 0 0 4.8691-4.8691 4.868 4.868 0 0 0-4.8691-4.8672 4.868 4.868 0 0 0-0.03906 0zm0.03906 1.3887a3.4793 3.4793 0 0 1 3.4805 3.4785 3.4793 3.4793 0 0 1-3.4805 3.4805 3.4793 3.4793 0 0 1-3.4785-3.4805 3.4793 3.4793 0 0 1 3.4785-3.4785z; 
            m12.535 11.049a4.868 4.868 0 0 0-4.8281 4.8672 4.868 4.868 0 0 0 4.8672 4.8691 4.868 4.868 0 0 0 4.8691-4.8691 4.868 4.868 0 0 0-4.8691-4.8672 4.868 4.868 0 0 0-0.03906 0zm0.03906 1.3887a3.4793 3.4793 0 0 1 3.4805 3.4785 3.4793 3.4793 0 0 1-3.4805 3.4805 3.4793 3.4793 0 0 1-3.4785-3.4805 3.4793 3.4793 0 0 1 3.4785-3.4785z; 
            m18.455 11.049a4.868 4.868 0 0 0-4.8281 4.8672 4.868 4.868 0 0 0 4.8672 4.8691 4.868 4.868 0 0 0 4.8691-4.8691 4.868 4.868 0 0 0-4.8691-4.8672 4.868 4.868 0 0 0-0.03906 0zm0.03906 1.3887a3.4793 3.4793 0 0 1 3.4805 3.4785 3.4793 3.4793 0 0 1-3.4805 3.4805 3.4793 3.4793 0 0 1-3.4785-3.4805 3.4793 3.4793 0 0 1 3.4785-3.4785z; 
            m18.455 11.049a4.868 4.868 0 0 0-4.8281 4.8672 4.868 4.868 0 0 0 4.8672 4.8691 4.868 4.868 0 0 0 4.8691-4.8691 4.868 4.868 0 0 0-4.8691-4.8672 4.868 4.868 0 0 0-0.03906 0zm0.03906 1.3887a3.4793 3.4793 0 0 1 3.4805 3.4785 3.4793 3.4793 0 0 1-3.4805 3.4805 3.4793 3.4793 0 0 1-3.4785-3.4805 3.4793 3.4793 0 0 1 3.4785-3.4785z" keyTimes="0; 0.05; 0.1; 0.15; 1" repeatCount="indefinite" />
</svg>
