<svg width="256" height="256" version="1.1" viewBox="0 0 67.733 67.733" xmlns="http://www.w3.org/2000/svg" xmlns:osb="http://www.openswatchbook.org/uri/2009/osb">
 <path d="m10.321 12.006c-0.21038 0-0.37976 0.1735-0.37976 0.3892v12.63c0 0.2157 0.16938 0.38961 0.37976 0.38961h16.925c0.21038 0 0.37976-0.17391 0.37976-0.38961v-12.63c0-0.2157-0.16938-0.3892-0.37976-0.3892zm30.167 0c-0.21038 0-0.37976 0.1735-0.37976 0.3892v12.63c0 0.2157 0.16938 0.38961 0.37976 0.38961h16.925c0.21038 0 0.37976-0.17391 0.37976-0.38961v-12.63c0-0.2157-0.16938-0.3892-0.37976-0.3892zm-30.167 22.322c-0.21038 0-0.37976 0.1735-0.37976 0.3892v12.63c0 0.2157 0.16938 0.38961 0.37976 0.38961h16.925c0.21038 0 0.37976-0.17391 0.37976-0.38961v-12.63c0-0.2157-0.16938-0.3892-0.37976-0.3892zm30.167 0c-0.21038 0-0.37976 0.1735-0.37976 0.3892v12.63c0 0.2157 0.16938 0.38961 0.37976 0.38961h4.0525v4.3514h-4.0308c-0.20757 0-0.37483 0.16726-0.37483 0.37483v2.8898c0 0.20757 0.16726 0.37442 0.37483 0.37442h8.3029c0.20758 0 0.37442-0.16685 0.37442-0.37442v-4.135h3.7976c0.20757 0 0.37442-0.16726 0.37442-0.37483v-3.1062h4.0542c0.21038 0 0.37976-0.17391 0.37976-0.38961v-12.63c0-0.2157-0.16938-0.3892-0.37976-0.3892z" fill="#ef5350"/>
</svg>
