<svg version="1.1" viewBox="0 0 24 24" xmlns="http://www.w3.org/2000/svg"><defs><style>.a{fill:#3aaae1;}.b{fill:#fdfeff;}</style></defs><title>kl</title><path d="m12 1.7034c-.25049-.00246-.50058.10955-.72878.33756-3.0792 3.0744-6.1546 6.1529-9.2262 9.2354-.14352.14394-.22878.34656-.34113.52168v.41002c.16033.22309.29362.47374.48511.66567 2.9729 2.985 5.9515 5.964 8.9358 8.9373.19272.19152.44286.32478.66633.48554h.41006c.20502-.14148.43548-.25544.60852-.42809 3.0459-3.0408 6.0903-6.0829 9.1334-9.1264.46951-.46956.47238-1.0052.0057-1.4719-3.0718-3.0727-6.1444-6.1453-9.2179-9.2177-.22963-.22966-.48051-.34659-.731-.34905zm-1.0621 4.5455 1.3859.83209c.70242.42158 1.4036.84528 2.1089 1.2619.00019 9.58e-5.000285.0002844.000474.0003802.01412.00837.02726.0168.03938.025482.0062.00434.01121.00888.01677.013341.0055.00434.01133.00857.0163.013058.06166.05536.08897.12223.08867.22368-.0047 1.2645-.0047 2.5289 0 3.7934 0 .03661-.0021.06794-.0077.09424v9.5e-5c-.01437.06896-.05371.10317-.14138.10916-.01373.001-.02777.0019-.04401.0016-.04525-.0015-.0907-.0019-.13601-.003-.3228-.0058-.64854-.000724-.99783-.000724v-.52654c0-.44651-.000822-.89316-.000822-1.3398v-.0011c-1e-6-.22349.000237-.44701.000822-.67049 3e-6-.0011-2e-6-.0022 0-.0033.000628-.22274.0016-.44547.0032-.66817v-.000356c-8e-6-.1461-.03854-.23016-.16923-.30719-.89311-.52783-1.7805-1.0662-2.6695-1.5993-.05208-.031166-.10211-.065684-.17427-.11203l.0014-.00232c-.000531-.0003318-.000869-.0005798-.0014-.000959zm.36198 3.3902c.0683-.00323.11869.04216.17353.13751.08489.1477.1734.29323.26359.43939.0053.0085.0103.01686.01548.02529 1.4e-5 2.3e-5-1.5e-5 4.7e-5 0 9.5e-5.09584.15469.1935.31028.29129.46979l-1.9145 1.1761c-.33747.20751-.67284.41754-1.0144.61767-.11317.06645-.15426.14308-.15426.27678.0099.97727.01113 1.9546.01482 2.9319v.2538h-1.3093c-2.52e-5-.000284-4.79e-5-.00058-9.52e-5-.00082h-.00159c-.00448-.05331-.013951-.11152-.01436-.16976-.00492-1.2504-.00613-2.5016-.015565-3.7516 0-.14107.045577-.22105.16408-.29364 1.1208-.68022 2.2385-1.3649 3.353-2.0542.0059-.00363.01098-.00605.01677-.00938.01098-.00645.02178-.012614.03198-.017788.0054-.00262.01041-.00484.01556-.00726.01157-.00534.02271-.00968.03335-.013159.004-.00132.0081-.00293.01203-.00383.0043-.00121.0087-.00222.01288-.00302.0049-.0009589.0097-.00161.01454-.00212.0037-.0004275.0076-.00151.01121-.00161zm5.6776 3.1254.31343.53974.34632.5946c-.000285.00019-.000532.000285-.000823.000474l.000475.000726c-.15828.0935-.29772.17723-.43795.25843-1.0325.59874-2.0647 1.198-3.0967 1.7979-.10579.06193-.189.07174-.29972.0098-.29749-.16536-.59541-.33012-.89314-.49514-.50821-.28107-1.0165-.56203-1.5248-.84293-.29813-.16437-.59606-.32905-.89443-.49305-.03527-.01969-.06768-.04428-.12878-.08488l.000628-.0011c-4.8e-5-4.5e-5-9.5e-5-4.5e-5-.00019-9.5e-5l.13731-.2499.49456-.90167c.49206.27066.96973.53319 1.4466.79484.44203.2436.88569.48391 1.3232.73489.12056.06891.21162.07136.33382 0 .8935-.52575 1.7915-1.0438 2.6883-1.5634.05741-.03364.11807-.06152.19188-.09925z" style="fill:#29b6f6;stroke-width:.041008"/></svg>
