<svg version="1.1" viewBox="0 0 240 240" xmlns="http://www.w3.org/2000/svg"><path d="m211.34 68.408c0-.08846-.0885-.17693-.0885-.2654-.0885-.17693-.0885-.35387-.17695-.44234-.0885-.08846-.17693-.17693-.17693-.2654-.0885-.08846-.17695-.2654-.26542-.35387l-.26538-.26539c-.0885-.08846-.17694-.17693-.35386-.2654l-35.475-20.436c-.88466-.5308-2.0347-.5308-2.9194 0l-35.475 20.436c-.0885.08846-.17693.17693-.35389.2654l-.2654.26539c-.0885.08846-.17692.2654-.26539.35387-.0885.08846-.17692.17693-.17692.2654-.0885.17693-.17695.2654-.17695.44234 0 .08846-.0885.17693-.0885.2654-.0885.2654-.0885.5308-.0885.7962v38.748l-29.547 16.986v-75.905c0-.2654 0-.5308-.0884-.7962 0-.08846-.0885-.17693-.0885-.26539-.0885-.17693-.0885-.35387-.17694-.44234-.0885-.08846-.17694-.17693-.17694-.2654-.0884-.08846-.17693-.2654-.26539-.35387l-.26539-.2654c-.0885-.08846-.17695-.17693-.35389-.2654l-35.563-20.259c-.88466-.5308-2.0347-.5308-2.9194 0l-35.475 20.436c-.08846.08846-.17693.17693-.35387.2654l-.2654.2654c-.08846.08846-.17693.26539-.26539.35387-.08846.08846-.17693.17693-.17693.2654-.08846.17693-.17693.26539-.17693.44234 0 .08846-.08846.17693-.08846.2654-.08846.2654-.08846.5308-.08846.7962v121.37c0 1.0616.5308 2.0347 1.504 2.5655l70.862 40.783c.17692.0885.35386.17692.44232.17692.0884 0 .17694.0885.26541.0885.26539.0885.53079.0885.79619.0885s.5308 0 .7962-.0885c.0885 0 .0885-.0885.17695-.0885.17693-.0885.35385-.0885.53078-.17692l70.862-40.783c.88467-.5308 1.504-1.504 1.504-2.5655v-38.748l33.971-19.551c.88467-.53081 1.504-1.504 1.504-2.5656v-40.606c-.17693-.2654-.26539-.5308-.26539-.70773zm-109.25 98.642-29.459-16.72 30.963-17.87 33.971-19.551 29.547 16.985-21.674 12.385zm67.942-75.816v33.618l-12.385-7.1658-17.162-9.9084v-33.618l12.385 7.1658zm3.0078-39.102 29.547 16.985-29.547 16.985-29.547-16.985zm-91.032 86.078-12.385 7.1658v-74.224l17.162-9.9084 12.385-7.1658v74.135zm-15.305-106.16 29.547 16.985-29.547 17.074-29.547-16.985zm-32.555 22.117 12.385 7.1658 17.162 9.9084v79.266c0 .0885 0 .26541.08846.35388 0 .17693 0 .2654.08846.44232 0 .0885.08846.26541.17693.35388.08846.0885.08846.2654.17693.35387l.26539.26539c.08846.0885.17693.17694.2654.35387.08846.0885.17693.17693.26539.17693.08846.0885.17693.17693.35387.26539l33.794 19.109v33.971l-65.023-37.422zm135.89 114.57-65.023 37.422v-33.971l48.126-27.513 16.897-9.6433zm35.475-60.865-29.547 16.986v-33.618l17.162-9.9084 12.385-7.1658z" style="fill:#ff5252;stroke-width:4.802;stroke:#ff5252"/></svg>
