<svg version="1.1" viewBox="0 0 18 18" xmlns="http://www.w3.org/2000/svg"><title>Meson</title><desc>Meson Build System</desc><path d="m9.0597 1.534c-4.6269 2.6406-7.4997 7.588-7.526 12.962 4.8408 2.6677 10.525 2.5767 14.93.02809.000551-.01288.0012-.02586.0022-.03868-.005477-5.3451-2.8285-10.282-7.4062-12.952zm2.4909 5.7217c.68599.4712.58426 1.6057.47376 2.3824-.14061.85567-.95221 2.2624-2.0067 3.1804.1364.19768.21616.44111.21502.70082-.65342.33385-1.3018-.042788-2.0859-.72154-.78415-.67876-1.6299-2.0386-1.9106-3.4365-.24894.026645-.50385-.029587-.7225-.16899.057106-.78377.88008-1.2493 1.6094-1.5241.72936-.27482 2.6084-.36784 3.9332.1082.1033-.21922.27442-.40354.49427-.52032z" style="fill:#3f51b5;stroke-width:.93326"/></svg>
