<svg version="1.1" viewBox="0 0 24 24" xmlns="http://www.w3.org/2000/svg"><g transform="translate(.40625)"><g transform="translate(-.6031 .86453)"><g transform="translate(.066291)"><g transform="translate(-.13258)" style="fill:#fbc02d" aria-label="Q"><path d="m12.201 15.549c.89923-1.1011 1.4681-2.9363 1.4681-4.7347 0-1.9636-.69736-3.8539-1.8719-5.1201-1.1562-1.2479-2.661-1.8535-4.5696-1.8535s-3.4134.60561-4.5696 1.8535c-1.1745 1.2663-1.8719 3.1565-1.8719 5.1568 0 2.0003.69736 3.8906 1.8719 5.1568 1.1562 1.2479 2.6793 1.8535 4.5696 1.8535 1.3764 0 2.4041-.27528 3.4685-.91758l1.5782 1.4865 1.3947-1.4865zm-3.3951-3.2115-1.3947 1.4865 1.4131 1.3397c-.42209.22022-1.0277.34868-1.6149.34868-2.2022 0-3.6703-1.8535-3.6703-4.6613 0-2.8078 1.4681-4.6613 3.6887-4.6613 2.2389 0 3.6887 1.8352 3.6887 4.6797 0 1.1011-.20187 2.0921-.60561 2.8996z" style="fill:#fbc02d;stroke-width:1.3639"/></g><path d="m17.719 3.8633-.61133 4h-1.5l-.33984 2h1.5l-.32031 2h-1.5l-.33984 2h1.5l-.60938 4h2l.60938-4h1l-.60938 4h2l.60938-4h1.5l.33984-2h-1.5l.32031-2h1.5l.33984-2h-1.5l.61133-4h-2l-.61133 4h-1l.61133-4zm1.0488 6h1l-.32031 2h-1z" style="fill:#fbc02d"/></g></g></g></svg>
