<svg fill="none" version="1.1" viewBox="0 0 24 24" xmlns="http://www.w3.org/2000/svg"><g transform="translate(-.49053 -.18775)" style="fill:#e53935"><path d="m3.7119 3.848c0-.087723.070819-.15883.15818-.15883h11.756c3.1167 0 5.6434 2.5371 5.6434 5.6668v1.1004c0 .08774-.07083.15886-.15819.15886h-3.4459c-.08736 0-.15819-.07112-.15819-.15886v-1.1004c0-1.0432-.84225-1.8889-1.8811-1.8889h-7.9935c-.087358 0-.15818.071117-.15818.15883v12.905c0 .08774-.071021.15915-.1583.1555-2.0044-.08332-3.604-1.7413-3.604-3.7746z" style="fill:#e53935;stroke-width:.96103"/><path d="m10.768 11.245c-.08736 0-.15857.07131-.15492.15896.08294 2.0127 1.7342 3.6189 3.759 3.6189h2.5082c.34636 0 .62708.28187.62708.62967v4.8783c0 .08774.07102.15915.15828.1555 2.0044-.08332 3.604-1.7413 3.604-3.7746v-1.2592c0-2.4342-1.9651-4.4075-4.3893-4.4075z" style="fill:#e53935;stroke-width:.96103"/></g></svg>
