<svg version="1.1" viewBox="0 0 24 24" xmlns="http://www.w3.org/2000/svg"><path d="m18.041 3.1767c2.2391.38208 2.8789 1.9193 2.8434 3.5275v-.035542l-1.0129 13.266-13.133.89744h.00889c-1.0929-.044427-3.5187-.15105-3.6342-3.5453l1.2173-2.2214 2.4613 5.74 2.097-6.7707-.044427.0089.017771-.01777 6.8507 2.1858-1.7682-6.9129 6.5308-.40873-5.1447-4.2117 2.7101-1.5105v.00889m-14.928 14.075v.01777-.01777m3.803-10.378c2.6301-2.6212 6.0333-4.1673 7.3394-2.8434 1.2973 1.3062-.071083 4.5227-2.7012 7.1351-2.6656 2.6123-6.0155 4.2473-7.3216 2.9322-1.3062-1.3239.035542-4.6116 2.6745-7.2239z" style="fill:#f44336;stroke-width:.88855"/></svg>
