<svg version="1.1" viewBox="0 0 24 24" xmlns="http://www.w3.org/2000/svg"><g transform="matrix(.93056 0 0 .93056 1.259 -4.9451)" style="fill:#0288d1"><path id="XMLID_14_" class="st0" d="m9.4976 21.898c1.7206-1.1776 2.1599-3.5267.98234-5.2473l-3.1118 2.1294c-.86031.58574-2.0379.36609-2.6236-.49422-.58574-.86031-.36609-2.0318.49422-2.6236l2.8433-1.9464 1.8243-1.2508c1.7206-1.1776 2.1599-3.5267.98234-5.2473l-3.1118 2.1355-4.6676 3.1911-.0061.0061c-2.5809 1.7694-3.2399 5.29-1.4705 7.8709 1.7572 2.5809 5.2839 3.2399 7.8648 1.4766z" style="fill:#0288d1;stroke-width:.61015"/><path id="XMLID_13_" class="st0" d="m13.592 14.521c-.0122.0061-.0183.0122-.02441.0183l.02441-.0183c-1.7206 1.1776-2.1599 3.5267-.98234 5.2473l3.1118-2.1294c.86031-.59184 2.0379-.37219 2.6236.49422.59184.86031.37219 2.0318-.48812 2.6236l-2.8433 1.9464-1.8304 1.2508c-1.7206 1.1776-2.1599 3.5267-.98234 5.2473l3.1118-2.1294 4.6676-3.1972c2.5809-1.7633 3.2399-5.29 1.4766-7.8709-1.7633-2.5931-5.2839-3.2521-7.8648-1.4827" style="fill:#0288d1;stroke-width:.61015"/></g></svg>
