<svg version="1.0" viewBox="0 0 24 24" xmlns="http://www.w3.org/2000/svg">
 <path d="m8.2641 3.0881c-0.222 0.128-0.524 0.31-0.664 0.4-0.075 0.047-0.54 0.328-1.033 0.624s-0.901 0.549-0.906 0.561a0.04 0.04 0 0 1-0.034 0.023c-0.024 0-1.36 0.795-1.66 0.988a0.984 0.984 0 0 0-0.214 0.185l-0.068 0.091-7e-3 1.095c-8e-3 1.327 7e-3 1.38 0.402 1.464 0.156 0.033 4.792 8e-3 4.874-0.027 0.326-0.136 0.321-0.094 0.312-2.79l-8e-3 -2.324-0.073-0.113c-0.169-0.26-0.627-0.348-0.921-0.177m2.279 3e-3c-0.068 0.043-0.132 0.104-0.142 0.135s-0.03 0.057-0.043 0.057c-0.014 0-0.024 9e-3 -0.023 0.02a0.077 0.077 0 0 1-2e-3 0.034c-3e-3 8e-3 -0.013 0.05-0.023 0.095-0.047 0.211-0.02 17.222 0.028 17.222 0.014 0 0.017 0.012 9e-3 0.026-0.028 0.044 0.192 0.24 0.303 0.271 0.374 0.104 5.5 0.026 5.5-0.085 0-0.012 0.019-0.022 0.042-0.022 0.024 0 0.036-0.01 0.029-0.022-8e-3 -0.013 0.01-0.043 0.039-0.068 0.03-0.025 0.053-0.068 0.053-0.095 0-0.028 6e-3 -0.057 0.014-0.065 8e-3 -7e-3 0.014-2.628 0.013-5.822 0-5.032 5e-3 -5.82 0.04-5.903 0.021-0.052 0.033-0.095 0.025-0.095-0.068 0 0.227-0.254 0.316-0.272 0.022-4e-3 0.74-0.012 1.596-0.017 1.866-0.01 1.79 0 1.943-0.268l0.063-0.109v-2.352c0-2.604 0.011-2.43-0.173-2.603-0.16-0.151 0.125-0.143-4.866-0.142l-4.617 1e-3 -0.124 0.079" fill="#4caf50"/>
</svg>
