<svg version="1.1" viewBox="0 0 100 100" xmlns="http://www.w3.org/2000/svg"><title>Dark</title><desc>Created with Sketch.</desc><g transform="translate(4.5e-6,4.9605e-4)"><polygon id="L" transform="matrix(1.0709 0 0 1.0709 -1.8849 -2.4744)" points="83 73.887 52.035 90 52 51.677 64.98 45 64.98 72.661 82.931 63.464" style="fill-rule:evenodd;fill:#b39ddb"/><polygon id="M" transform="matrix(1.0709 0 0 1.0709 -6.2763 -2.4744)" points="41.992 85.982 50 90 50 51.561 37.835 45.687 33.983 64.03 30.098 41.908 18 36 18 74.473 25.975 78.561 25.975 55.374 30.334 80.416 37.43 84.023 41.992 63.206" style="fill-rule:evenodd;fill:#fbc02d"/><path id="U" d="m45.237 6.0926-9.7751 8.7554s19.072 9.931 21.39 11.105c2.3171 1.1733 5.6147 3.4304 2.0498 6.7712-3.5649 3.3404-7.4862 2.889-10.16 1.5348-2.6736-1.3542-22.458-11.466-22.458-11.466l-10.07 8.6668s19.428 10.021 22.636 11.736c3.2083 1.7157 15.15 5.9586 26.47-2.9793 11.318-8.9379 9.7146-12.188 9.7146-12.82 0-.63198-.26736-3.9724-2.228-6.0489-1.961-2.0765-7.6644-5.0558-10.071-6.3198-2.4062-1.2639-17.496-8.9356-17.496-8.9356z" style="fill-rule:evenodd;fill:#f06292;stroke-width:1.0709"/></g></svg>
