<svg width="64" height="64" version="1.1" xmlns="http://www.w3.org/2000/svg" xmlns:xlink="http://www.w3.org/1999/xlink">
 <defs>
  <radialGradient id="a" cx="4.993" cy="43.5" r="2.5" gradientTransform="matrix(2.0038,0,0,1.4,27.988,-17.4)" gradientUnits="userSpaceOnUse">
   <stop stop-color="#181818" offset="0"/>
   <stop stop-color="#181818" stop-opacity="0" offset="1"/>
  </radialGradient>
  <radialGradient id="b" cx="4.993" cy="43.5" r="2.5" gradientTransform="matrix(2.0038,0,0,1.4,-20.012,-104.4)" gradientUnits="userSpaceOnUse">
   <stop stop-color="#181818" offset="0"/>
   <stop stop-color="#181818" stop-opacity="0" offset="1"/>
  </radialGradient>
  <linearGradient id="c" x1="25.058" x2="25.058" y1="47.028" y2="39.999" gradientUnits="userSpaceOnUse">
   <stop stop-color="#181818" stop-opacity="0" offset="0"/>
   <stop stop-color="#181818" offset=".5"/>
   <stop stop-color="#181818" stop-opacity="0" offset="1"/>
  </linearGradient>
  <linearGradient id="e" x1="24" x2="24" y1="5" y2="43" gradientTransform="matrix(1.4324 0 0 1.4363 134.03 -5.8598)" gradientUnits="userSpaceOnUse">
   <stop stop-color="#fff" offset="0"/>
   <stop stop-color="#fff" stop-opacity=".235" offset=".063"/>
   <stop stop-color="#fff" stop-opacity=".157" offset=".951"/>
   <stop stop-color="#fff" stop-opacity=".392" offset="1"/>
  </linearGradient>
  <linearGradient id="linearGradient878" x1="31.293" x2="31.293" y1="5.0079" y2="59.329" gradientTransform="translate(136.41 -3.3898)" gradientUnits="userSpaceOnUse">
   <stop stop-color="#ad65d6" offset="0"/>
   <stop stop-color="#7a36b1" offset="1"/>
  </linearGradient>
 </defs>
 <g transform="translate(136.41 -3.3898)" opacity=".6">
  <path transform="matrix(1.579 0 0 .71429 -5.895 27.929)" d="m38 40h5v7h-5z" fill="url(#a)"/>
  <path transform="matrix(-1.579 0 0 -.71429 -5.895 27.929)" d="m-10-47h5v7h-5z" fill="url(#b)"/>
  <path transform="matrix(1.579 0 0 .71429 -5.895 27.929)" d="m10 40h28v7h-28z" fill="url(#c)"/>
 </g>
 <rect x="140.91" y="1.1102" width="55" height="55" rx="3" ry="3" color="#000000" fill="url(#linearGradient878)"/>
 <rect x="141.91" y="2.0392" width="53" height="53.142" rx="2" ry="2" fill="none" opacity=".3" stroke="url(#e)" stroke-linecap="round" stroke-linejoin="round"/>
 <rect x="140.91" y="1.1102" width="55" height="55" rx="3" ry="3" color="#000000" fill="none" opacity=".5" stroke="#260063" stroke-linecap="round" stroke-linejoin="round"/>
 <path d="m167.87 12.594c-1.35 0-2.705 0.166-4.06 0.493-1.335 0.31-2.624 0.752-3.866 1.326a20.767 20.767 0 0 0-3.467 2.002 1.016 1.016 0 0 0-5e-3 4e-3 17.304 17.304 0 0 0-2.844 2.562 1.016 1.016 0 0 0-6e-3 8e-3 12.544 12.544 0 0 0-1.95 3.012 1.016 1.016 0 0 0-5e-3 0.011 8.348 8.348 0 0 0-0.729 3.373c0 0.912 0.11 1.722 0.373 2.434a1.016 1.016 0 0 0 8e-3 0.021c0.272 0.69 0.68 1.293 1.217 1.75a1.016 1.016 0 0 0 0.014 0.012c0.54 0.444 1.188 0.754 1.908 0.947a1.016 1.016 0 0 0 0.023 6e-3c0.702 0.171 1.473 0.252 2.32 0.252a1.016 1.016 0 0 0 1.016-1.015c0-0.376-0.132-0.636-0.266-0.85l0.047 0.084a4.014 4.014 0 0 1-0.148-0.371c0-1e-3 -2e-3 0-2e-3 -2e-3a7.263 7.263 0 0 1-0.178-0.703 8.528 8.528 0 0 1-0.072-1.236c0-2.366 0.542-4.247 1.588-5.75 0.797-1.131 1.9-1.962 3.17-2.653l0.691 29.322a1.016 1.016 0 0 0 1.016 0.992h6.53a1.016 1.016 0 0 0 0.952-0.66l12.594-33.779a1.016 1.016 0 0 0-0.951-1.37h-3.164a1.016 1.016 0 0 0-0.961 0.685l-7.649 22.25-0.314-22.066a1.016 1.016 0 0 0-0.914-0.996 18.86 18.86 0 0 0-0.934-0.07h-2e-3a18.748 18.748 0 0 0-0.98-0.024z" color="#000000" fill="#260063" opacity=".15" style="isolation:auto;mix-blend-mode:normal"/>
 <path d="m163.66 47.609-0.73-30.967q-3.188 1.195-4.98 3.74-1.772 2.546-1.772 6.331 0 0.863 0.089 1.417 0.11 0.531 0.221 0.863 0.111 0.31 0.2 0.487 0.11 0.177 0.11 0.31-1.173 0-2.08-0.221-0.908-0.244-1.528-0.753-0.598-0.508-0.93-1.35-0.31-0.84-0.31-2.08 0-1.505 0.641-2.966 0.664-1.46 1.793-2.767 1.151-1.305 2.679-2.412 1.55-1.107 3.298-1.904 1.77-0.819 3.674-1.261 1.926-0.466 3.83-0.466 0.509 0 0.93 0.022 0.442 0.022 0.884 0.066l0.399 27.89 9.54-27.758h3.165l-12.594 33.78h-6.53z" color="#000000" fill="#260063" opacity=".3" style="isolation:auto;mix-blend-mode:normal"/>
 <path d="m163.66 46.609-0.73-30.967q-3.188 1.195-4.98 3.74-1.772 2.546-1.772 6.331 0 0.863 0.089 1.417 0.11 0.531 0.221 0.863 0.111 0.31 0.2 0.487 0.11 0.177 0.11 0.31-1.173 0-2.08-0.221-0.908-0.244-1.528-0.753-0.598-0.508-0.93-1.35-0.31-0.84-0.31-2.08 0-1.505 0.641-2.966 0.664-1.46 1.793-2.767 1.151-1.305 2.679-2.412 1.55-1.107 3.298-1.904 1.77-0.819 3.674-1.261 1.926-0.466 3.83-0.466 0.509 0 0.93 0.022 0.442 0.022 0.884 0.066l0.399 27.89 9.54-27.758h3.165l-12.594 33.78h-6.53z" fill="#fff"/>
 <path d="m26.357 57.882-1.1115-47.15q-4.854 1.8195-7.5825 5.6945-2.698 3.8765-2.698 9.6395 0 1.314 0.13551 2.1575 0.16748 0.80849 0.33649 1.314 0.16901 0.472 0.30452 0.7415 0.16748 0.2695 0.16748 0.472-1.786 0-3.167-0.33649-1.3825-0.37151-2.3265-1.1465-0.9105-0.77347-1.416-2.0555-0.472-1.279-0.472-3.167 0-2.2915 0.97598-4.516 1.011-2.223 2.73-4.213 1.7525-1.987 4.079-3.6725 2.36-1.6855 5.0215-2.899 2.695-1.247 5.594-1.92 2.9325-0.70952 5.8315-0.70952 0.77499 0 1.416 0.033497 0.67298 0.033497 1.346 0.10049l0.60751 42.465 14.525-42.264h4.819l-19.175 51.433h-9.9425z" fill="#9575cd" stroke-width="1.5226"/>
</svg>
