<svg version="1.1" viewBox="0 0 24 24" xmlns="http://www.w3.org/2000/svg"><g transform="matrix(.12759 0 0 .12759 3.1261 5.7261)" style="fill:#f7a41d"><g transform="matrix(1.0634 0 0 1.0634 -10.203 -4.0121)" style="fill:#f9a825"><path d="m0 10v80h19l6-10 12-10h-17v-40h15v-20zm40 0v20h62v-20zm91 0-6 10-12 10h17v40h-15v20h35v-80zm-83 60v20h62v-20z" style="fill:#f9a825;shape-rendering:crispEdges"/><path d="m37 70-18 20v-15z" style="fill:#f9a825"/><path d="m113 30 18-20v15z" style="fill:#f9a825"/><path d="m96.98 10.63 36.28-10.4-80.29 89.17-36.28 10.4z" style="fill:#f9a825"/></g></g></svg>
