<svg xmlns="http://www.w3.org/2000/svg" viewBox="0 0 16 16"><style>.icon-canvas-transparent{opacity:0;fill:#252526}.icon-vs-out{fill:#252526}.icon-vs-bg{fill:#c5c5c5}.icon-vs-fg{fill:#2a292c}</style><path class="icon-canvas-transparent" d="M16 16H0V0h16v16z" id="canvas"/><path class="icon-vs-out" d="M15 0v15H1V0h14z" id="outline" style="display: none;"/><path class="icon-vs-fg" d="M4 2v11h9V2H4zm7 3v1H6V4h5v1z" id="iconFg" style="display: none;"/><g id="iconBg"><path class="icon-vs-bg" d="M2 1v1h1v1H2v1h1v1H2v1h1v1H2v1h1v1H2v1h1v1H2v1h1v1H2v1h12V1H2zm11 12H4V2h9v11zm-2-9v2H6V4h5z"/></g></svg>