<svg width="16px" height="16px" viewBox="0 0 16 16" version="1.1" xmlns="http://www.w3.org/2000/svg" xmlns:xlink="http://www.w3.org/1999/xlink">
    <g id="copy" transform="translate(3.000000, 2.000000)">
        <path d="M0.923076923,3.42857143 L9.23076923,3.42857143 L9.23076923,6 L10.1538462,6 L10.1538462,3.42857143 L10.1538462,2.57142857 L9.23076923,2.57142857 L0.923076923,2.57142857 L0,2.57142857 L0,3.42857143 L0,11.1428571 L0,12 L0.923076923,12 L9.23076923,12 L10.1538462,12 L10.1538462,11.1428571 L10.1538462,9.42857143 L9.23076923,9.42857143 L9.23076923,11.1428571 L0.923076923,11.1428571 L0.923076923,3.42857143 Z M1.84615385,7.71428571 L3.69230769,7.71428571 L3.69230769,8.57142857 L1.84615385,8.57142857 L1.84615385,7.71428571 Z M3.69230769,6 L1.84615385,6 L1.84615385,6.85714286 L3.69230769,6.85714286 L3.69230769,6 Z M1.84615385,4.28571429 L5.53846154,4.28571429 L5.53846154,5.14285714 L1.84615385,5.14285714 L1.84615385,4.28571429 Z M5.53846154,10.2857143 L5.53846154,9.42857143 L1.84615385,9.42857143 L1.84615385,10.2857143 L5.53846154,10.2857143 Z" id="Shape" fill="#333333"></path>
        <polygon id="Shape" fill="#89D185" points="8.07692308 5.48699143 4.61538462 7.71396857 8.07692308 9.94085143 8.07692308 8.57142857 12 8.57142857 12 6.85714286 8.07692308 6.85714286"></polygon>
        <path d="M5.07692308,0 C4.47408,0 3.96138462,0.35784 3.77118462,0.857142857 L0.923076923,0.857142857 C0.413311385,0.857142857 0,1.24092857 0,1.71428571 L0,2.57142857 L1.84615385,2.57142857 C1.84615385,2.09807143 2.25946154,1.71428571 2.76923077,1.71428571 L4.15384615,1.71428571 C4.15384615,1.24092857 4.56715385,0.857142857 5.07692308,0.857142857 C5.58669231,0.857142857 6,1.24092857 6,1.71428571 L7.38461538,1.71428571 C7.89438462,1.71428571 8.30769231,2.09807143 8.30769231,2.57142857 L10.1538462,2.57142857 L10.1538462,1.71428571 C10.1538462,1.24092857 9.74049231,0.857142857 9.23076923,0.857142857 L6.38266154,0.857142857 C6.19246154,0.35784 5.67976615,0 5.07692308,0 Z" id="Shape" fill="#333333"></path>
    </g>
</svg>