<svg width="16" height="16" viewBox="0 0 16 16" fill="none" xmlns="http://www.w3.org/2000/svg">
<path fill-rule="evenodd" clip-rule="evenodd" d="M13 6V3.5L12.5 3H6.707L5.854 2.146L5.5 2H0.5L0 2.5V13.5L0.5 14L0.025 13.342L0.0963949 13.1279L0.0250244 13.342L0.500024 14L12.516 14L13 13.629L15.634 6.629L15.151 6H13ZM12 6V4H6.5L6.146 3.854L5.293 3H1V10.4171L2.02502 7.342L2.50002 7H7.29302L8.14602 6.146L8.50002 6H12ZM1.19302 13L12.133 13L14.5 7H8.70702L7.85402 7.854L7.50002 8H2.86002L1.19302 13Z" fill="#C5C5C5"/>
</svg>
