<svg width="16" height="16" viewBox="0 0 16 16" fill="none" xmlns="http://www.w3.org/2000/svg">
<path fill-rule="evenodd" clip-rule="evenodd" d="M1.5 2H14.5L15 2.5V8.00305C14.6892 7.76964 14.3534 7.57413 14 7.41955V3H2V12H7C7 12.326 7.03187 12.6527 7.09608 12.9755C7.24266 13.7124 7.55277 14.4037 8 15H4V14H7V13H1.5L1 12.5V2.5L1.5 2Z" fill="#C5C5C5"/>
<path d="M12 8C12.3672 8 12.7214 8.04688 13.0625 8.14062C13.4036 8.23438 13.7214 8.36979 14.0156 8.54688C14.3099 8.72396 14.5794 8.93229 14.8242 9.17188C15.069 9.41146 15.2786 9.68099 15.4531 9.98047C15.6276 10.2799 15.7617 10.599 15.8555 10.9375C15.9492 11.276 15.9974 11.6302 16 12C16 12.3672 15.9531 12.7214 15.8594 13.0625C15.7656 13.4036 15.6302 13.7214 15.4531 14.0156C15.276 14.3099 15.0677 14.5794 14.8281 14.8242C14.5885 15.069 14.319 15.2786 14.0195 15.4531C13.7201 15.6276 13.401 15.7617 13.0625 15.8555C12.724 15.9492 12.3698 15.9974 12 16C11.6328 16 11.2786 15.9531 10.9375 15.8594C10.5964 15.7656 10.2786 15.6302 9.98438 15.4531C9.6901 15.276 9.42057 15.0677 9.17578 14.8281C8.93099 14.5885 8.72135 14.319 8.54688 14.0195C8.3724 13.7201 8.23828 13.401 8.14453 13.0625C8.05078 12.724 8.0026 12.3698 8 12C8 11.6328 8.04688 11.2786 8.14062 10.9375C8.23438 10.5964 8.36979 10.2786 8.54688 9.98438C8.72396 9.6901 8.93229 9.42057 9.17188 9.17578C9.41146 8.93099 9.68099 8.72135 9.98047 8.54688C10.2799 8.3724 10.599 8.23828 10.9375 8.14453C11.276 8.05078 11.6302 8.0026 12 8ZM12 14.0859C12.2005 14.0859 12.3945 14.0586 12.582 14.0039C12.7695 13.9492 12.9466 13.8685 13.1133 13.7617C13.2799 13.6549 13.4284 13.5299 13.5586 13.3867C13.6888 13.2435 13.7982 13.0794 13.8867 12.8945L13.2773 12.6055C13.2174 12.7279 13.1432 12.8385 13.0547 12.9375C12.9661 13.0365 12.8659 13.1211 12.7539 13.1914C12.6419 13.2617 12.5221 13.3164 12.3945 13.3555C12.2669 13.3945 12.1354 13.4141 12 13.4141C11.8125 13.4141 11.6341 13.3776 11.4648 13.3047C11.2956 13.2318 11.1432 13.1302 11.0078 13H11.5V12.5H10V14H10.5V13.4453C10.6953 13.6484 10.9232 13.806 11.1836 13.918C11.444 14.0299 11.7161 14.0859 12 14.0859ZM14 11.5V10H13.5V10.5547C13.3047 10.3516 13.0768 10.194 12.8164 10.082C12.556 9.97005 12.2839 9.91406 12 9.91406C11.7995 9.91406 11.6055 9.94141 11.418 9.99609C11.2305 10.0508 11.0534 10.1315 10.8867 10.2383C10.7201 10.3451 10.5716 10.4701 10.4414 10.6133C10.3112 10.7565 10.2018 10.9206 10.1133 11.1055L10.7227 11.3945C10.7799 11.2721 10.8529 11.1615 10.9414 11.0625C11.0299 10.9635 11.1315 10.8789 11.2461 10.8086C11.3607 10.7383 11.4805 10.6836 11.6055 10.6445C11.7305 10.6055 11.862 10.5859 12 10.5859C12.1875 10.5859 12.3659 10.6224 12.5352 10.6953C12.7044 10.7682 12.8568 10.8698 12.9922 11H12.5V11.5H14Z" fill="#C5C5C5"/>
</svg>
